<svg width="46" height="46" viewBox="0 0 46 46" fill="none" xmlns="http://www.w3.org/2000/svg">
<path d="M14.3621 7.99732C14.8837 2.63878 19.5494 -0.0593776 23.1376 -1.80933e-05C26.8158 0.0629389 31.1973 2.93198 31.6433 7.97034C32.3178 7.97034 33.0013 7.96135 33.683 7.97214C35.0967 7.99373 36.1633 8.6179 36.7641 9.90222C36.9727 10.3465 37.0842 10.8754 37.0914 11.3682C37.1256 13.507 37.1058 15.6475 37.1058 17.788C37.1058 17.9481 37.1058 18.1082 37.1058 18.3151C38.2137 18.3151 39.2731 18.3097 40.3307 18.3187C40.5664 18.3205 40.8164 18.3277 41.0358 18.4014C41.5952 18.5885 41.9477 19.1029 41.9513 19.7073C41.9585 20.7542 41.9549 21.8029 41.9477 22.8498C41.9423 23.8319 41.3775 24.4039 40.3847 24.4183C39.4728 24.4309 38.5591 24.4219 37.6454 24.4219C37.4835 24.4219 37.3216 24.4219 37.131 24.4219V27.1075C37.6634 27.1075 38.1976 27.1075 38.7318 27.1075C39.3307 27.1075 39.9296 27.0985 40.5268 27.1111C41.3829 27.1291 41.9477 27.7083 41.9513 28.5663C41.9567 29.5844 41.9513 30.6007 41.9477 31.6188C41.9423 32.6333 41.3883 33.1981 40.3649 33.2107C39.3037 33.2233 38.2407 33.2143 37.1418 33.2143V35.8531C38.203 35.8531 39.2606 35.8531 40.3181 35.8531C41.4027 35.8531 41.9531 36.3981 41.9531 37.4702C41.9531 38.4577 41.9549 39.4453 41.9477 40.4328C41.9405 41.3879 41.3596 41.9563 40.3991 41.9581C39.3235 41.9599 38.2461 41.9581 37.1382 41.9581V44.6509H44.6475V44.1616C44.6475 35.3926 44.6367 26.6236 44.66 17.8546C44.6636 16.6764 43.8327 15.5468 42.4225 15.6223C41.5124 15.6709 40.5969 15.6421 39.685 15.6259C39.1347 15.6169 38.7821 15.2032 38.926 14.7643C39.0375 14.4279 39.2857 14.2732 39.6455 14.275C40.6779 14.2822 41.7121 14.257 42.7427 14.2858C44.5665 14.3362 45.9838 15.795 45.991 17.6172C46 19.9969 45.9928 22.3767 45.9928 24.7547C45.9928 31.295 45.9928 37.8336 45.9928 44.3739C45.9928 45.4604 45.4568 45.9982 44.3723 45.9982C30.1253 45.9982 15.8765 45.9982 1.62959 45.9982C0.545012 45.9982 0.0108181 45.4604 0.0108181 44.3721C0.0144154 35.5275 0.0342003 26.6848 2.63013e-05 17.8402C-0.00716822 15.9101 1.46231 14.1977 3.5829 14.266C5.19807 14.3182 6.81504 14.266 8.43201 14.284C8.77195 14.2876 8.86548 14.1815 8.86368 13.8505C8.85469 12.8936 8.8349 11.933 8.90145 10.9797C9.01117 9.41476 10.3152 8.11424 11.8764 8.00812C12.6948 7.95235 13.5185 7.99912 14.3639 7.99912L14.3621 7.99732ZM15.6427 32.8276C14.6715 32.7035 14.2955 32.2771 14.2955 31.3382C14.2955 30.9497 14.2955 30.5593 14.2955 30.1708C14.2973 29.2066 14.7542 28.7552 15.7309 28.7552C18.5439 28.7552 21.3588 28.7552 24.1718 28.7552C26.2529 28.7552 28.3321 28.7588 30.4131 28.7534C30.9815 28.7534 31.5156 28.9692 31.5966 29.5088C31.7189 30.3219 31.6631 31.1637 31.6272 31.9929C31.62 32.1746 31.4131 32.3977 31.2405 32.5128C30.9904 32.6783 30.6865 32.761 30.3951 32.8833V44.6257H35.7442C35.7514 44.5268 35.7586 44.4548 35.7586 44.3811C35.7586 33.3672 35.7604 22.3533 35.7568 11.3376C35.7568 10.2242 34.9259 9.38238 33.8125 9.33381C33.3341 9.31402 32.8556 9.32841 32.3754 9.32841C31.8886 9.32841 31.6038 9.57185 31.521 10.0587C30.5192 15.9191 24.0477 19.0706 18.8659 16.1907C16.3424 14.7877 14.8657 12.6148 14.47 9.73853C14.4268 9.42195 14.3189 9.30683 13.9916 9.32122C13.3944 9.3482 12.7865 9.27085 12.1983 9.35C11.7613 9.40936 11.2972 9.57485 10.9339 9.82488C10.3134 10.253 10.2109 10.9419 10.2109 11.6614C10.2181 22.481 10.2145 33.3007 10.2145 44.1203V44.6185H15.6409C15.6409 43.3162 15.6373 42.0463 15.6427 40.7763C15.6445 40.3231 15.9125 40.0406 16.31 40.0389C16.7039 40.0371 16.9755 40.3213 16.9863 40.771C16.9953 41.1145 16.9881 41.4599 16.9881 41.8034C16.9881 42.7406 16.9881 43.6796 16.9881 44.6293H22.2923V32.8222H16.9881V33.2827C16.9881 34.585 16.9881 35.8873 16.9881 37.1878C16.9881 37.2921 16.9917 37.3983 16.9881 37.5026C16.9683 37.9469 16.6931 38.2365 16.3028 38.2311C15.9107 38.2257 15.6445 37.9361 15.6427 37.4828C15.6373 35.9431 15.6409 34.4015 15.6409 32.8276H15.6427ZM8.83311 15.6313H8.35287C6.76648 15.6313 5.17829 15.6745 3.59369 15.6187C2.14759 15.5666 1.3472 16.7142 1.3508 17.8492C1.37598 26.6182 1.36339 35.389 1.36339 44.158V44.6221H8.83131V41.9581C7.74853 41.9581 6.68914 41.9581 5.63154 41.9581C4.64229 41.9581 4.07033 41.3915 4.06313 40.4076C4.05774 39.5838 4.1045 38.7581 4.04875 37.9397C3.93723 36.3028 4.67107 35.7524 6.12257 35.8441C7.01289 35.8999 7.91041 35.8549 8.81512 35.8549V33.2179C8.59569 33.2179 8.41762 33.2179 8.23956 33.2179C7.35643 33.2179 6.4733 33.2323 5.59017 33.2125C4.62071 33.1909 4.07033 32.6171 4.06313 31.6548C4.05774 30.6367 4.05594 29.6204 4.05774 28.6023C4.05954 27.6957 4.62611 27.1255 5.53981 27.1147C6.24308 27.1057 6.94634 27.1129 7.64961 27.1129C8.03451 27.1129 8.41942 27.1129 8.82591 27.1129V24.4273C8.63705 24.4273 8.47518 24.4273 8.3151 24.4273C7.41758 24.4273 6.51827 24.4381 5.62075 24.4237C4.6315 24.4093 4.06673 23.8319 4.06134 22.8498C4.05594 21.8173 4.05234 20.7848 4.05774 19.7523C4.06134 18.9249 4.6351 18.3349 5.46067 18.3241C6.41754 18.3115 7.37621 18.3205 8.33488 18.3205C8.49316 18.3205 8.65144 18.3205 8.83311 18.3205V15.6349V15.6313ZM30.28 8.64308C30.28 4.63542 27.0065 1.36705 22.9955 1.37065C19.008 1.37424 15.7399 4.63542 15.7327 8.6197C15.7255 12.6328 18.99 15.9119 22.9937 15.9173C27.0029 15.9209 30.28 12.6507 30.28 8.64488V8.64308ZM23.7258 32.8132V44.6221H28.9904V32.8132H23.7258ZM15.6661 31.4191H30.3339V30.1258H15.6661V31.4191ZM37.1382 37.2148V40.5839H40.5736V37.2148H37.1382ZM40.5843 19.7073H37.1418V23.0333H40.5843V19.7073ZM40.5789 31.8239V28.5015H37.1238V31.8239H40.5789ZM8.83131 40.5893V37.2346H5.43729V40.5893H8.83131ZM8.82591 23.0351V19.7073H5.43189V23.0351H8.82591ZM5.43009 28.4889V31.8257H8.82591V28.4889H5.43009Z" fill="white"/>
<path d="M17.3047 26.0623C16.3335 26.0623 15.3622 26.0677 14.3909 26.0623C13.515 26.0569 12.9197 25.4885 12.9107 24.6125C12.8999 23.5063 12.9107 22.4 12.9358 21.2956C12.9538 20.5437 13.5384 19.9663 14.2884 19.9627C16.2903 19.9519 18.294 19.9519 20.2958 19.9627C21.0531 19.9663 21.6466 20.5779 21.6556 21.3441C21.6682 22.4342 21.6646 23.5261 21.6556 24.6161C21.6502 25.4579 21.0603 26.0533 20.2167 26.0623C19.2454 26.0731 18.2742 26.0641 17.3029 26.0641L17.3047 26.0623ZM20.2761 24.6935V21.3405H14.2956V24.6935H20.2761Z" fill="white"/>
<path d="M28.7187 26.0624C27.7618 26.0624 26.8049 26.066 25.8481 26.0624C24.9434 26.057 24.357 25.476 24.3534 24.582C24.348 23.5207 24.348 22.4594 24.3534 21.3981C24.3588 20.5545 24.9488 19.9627 25.7941 19.9591C27.7366 19.9537 29.681 19.9537 31.6235 19.9591C32.4922 19.9609 33.0696 20.5473 33.0732 21.4287C33.0768 22.49 33.0732 23.5513 33.0642 24.6125C33.057 25.458 32.4724 26.0516 31.6307 26.0606C30.6594 26.0714 29.6882 26.0624 28.7169 26.0624H28.7187ZM25.724 24.6791H31.7008V21.328H25.724V24.6791Z" fill="white"/>
<path d="M19.6213 38.7221C19.6339 38.4541 19.6249 38.1843 19.6645 37.9199C19.7167 37.5619 19.9487 37.373 20.3138 37.373C20.6771 37.373 20.9325 37.5619 20.9577 37.9199C20.9937 38.4523 20.9937 38.9901 20.9577 39.5226C20.9325 39.8787 20.6753 40.0712 20.3138 40.0712C19.9523 40.0712 19.7185 39.8787 19.6663 39.5208C19.6267 39.2582 19.6357 38.9865 19.6231 38.7185L19.6213 38.7221Z" fill="white"/>
<path d="M20.9792 10.6756C20.1717 10.6756 19.427 10.654 18.6824 10.681C17.614 10.7206 16.9845 10.2062 17.0744 9.05314C17.1014 8.69699 17.0762 8.33543 17.0798 7.97568C17.0852 7.11586 17.5385 6.64279 18.4018 6.6266C19.15 6.61221 19.8983 6.623 20.6465 6.6212C20.7346 6.6212 20.8228 6.60501 20.981 6.59062C20.981 6.09596 20.9792 5.60849 20.981 5.12103C20.9828 4.70191 20.9667 4.281 21.0008 3.86548C21.0602 3.15497 21.5332 2.72866 22.2437 2.71607C22.7077 2.70887 23.1718 2.71247 23.6358 2.71607C24.5459 2.71967 25.0136 3.17116 25.0316 4.08853C25.046 4.77566 25.0334 5.46459 25.0352 6.15352C25.0352 6.28663 25.0478 6.41794 25.0585 6.6248C25.3373 6.6248 25.5999 6.6248 25.8625 6.6248C26.5064 6.6284 27.1504 6.60681 27.7925 6.64279C28.4723 6.67876 28.9184 7.16443 28.9328 7.84437C28.9454 8.3822 28.9454 8.92183 28.9328 9.45966C28.9166 10.1 28.5065 10.5857 27.868 10.6361C27.1539 10.6918 26.4345 10.6684 25.7168 10.6792C25.5118 10.6828 25.305 10.6792 25.037 10.6792C25.037 11.1091 25.037 11.4923 25.037 11.8754C25.0352 12.3845 25.0549 12.8935 25.019 13.4008C24.9668 14.1347 24.4866 14.5628 23.7509 14.5718C23.2869 14.579 22.8228 14.5754 22.3588 14.5718C21.4793 14.5682 21.008 14.1113 20.9864 13.2209C20.9721 12.5625 20.9828 11.9042 20.9828 11.2458C20.9828 11.0822 20.9828 10.9203 20.9828 10.6774L20.9792 10.6756ZM23.6736 13.2029C23.6736 13.0086 23.6736 12.8468 23.6736 12.6849C23.6736 11.9222 23.6628 11.1595 23.6772 10.3968C23.6916 9.66293 24.0297 9.33195 24.7618 9.32116C25.4506 9.31037 26.1377 9.31936 26.8266 9.31936C27.073 9.31936 27.3194 9.31936 27.5514 9.31936V7.98287C26.6054 7.98287 25.6935 7.99546 24.7816 7.97928C24.0261 7.96668 23.6952 7.62312 23.6736 6.86943C23.6664 6.64459 23.6736 6.42154 23.6736 6.19669C23.6736 5.49877 23.6736 4.80264 23.6736 4.09213H22.339C22.339 5.02749 22.348 5.93767 22.3372 6.84785C22.3282 7.62672 21.9883 7.96309 21.2077 7.98107C20.6987 7.99367 20.1896 7.98287 19.6824 7.98287C19.2723 7.98287 18.8623 7.98287 18.4432 7.98287V9.31936C18.6194 9.31936 18.7795 9.31936 18.9414 9.31936C19.7202 9.31936 20.4972 9.31037 21.276 9.32296C21.9793 9.33375 22.3084 9.66832 22.339 10.3752C22.348 10.6001 22.3408 10.8231 22.3408 11.048C22.3408 11.7603 22.3408 12.4726 22.3408 13.2029H23.6754H23.6736Z" fill="white"/>
<path d="M26.3642 38.713C26.3642 38.9666 26.3858 39.2221 26.3588 39.4703C26.3175 39.8444 26.0944 40.0675 25.7095 40.0711C25.3246 40.0765 25.0746 39.8642 25.0476 39.4865C25.0135 38.9828 25.0153 38.4738 25.044 37.9701C25.0656 37.5942 25.303 37.3747 25.6915 37.3711C26.1052 37.3675 26.3247 37.6032 26.3642 37.9971C26.3876 38.2327 26.3678 38.4738 26.3678 38.7112H26.3642V38.713Z" fill="white"/>
</svg>
