<svg width="51" height="50" viewBox="0 0 51 50" fill="none" xmlns="http://www.w3.org/2000/svg">
<path d="M42.672 21.2039V20.4196C42.672 17.1164 42.6837 13.8132 42.6661 10.51C42.6602 9.4089 42.6681 8.32738 43.3739 7.37103C42.1186 7.37494 41.2173 8.32543 41.2134 9.63185C41.2036 12.3816 41.2095 15.1313 41.2095 17.883C41.2095 18.0297 41.2173 18.1764 41.2056 18.3231C41.1684 18.7514 40.8791 19.0389 40.49 19.0447C40.0853 19.0526 39.7842 18.7514 39.747 18.2996C39.7411 18.2351 39.7451 18.1686 39.7451 18.104C39.7451 15.2722 39.7353 12.4403 39.749 9.61034C39.7568 7.65266 41.0746 6.11546 42.9965 5.91793C43.6183 5.85339 44.2694 6.13111 44.9067 6.13111C45.5285 6.13111 46.162 5.85535 46.7681 5.91989C48.649 6.12133 49.9863 7.63701 49.9922 9.53406C50.0078 15.4247 50.0078 21.3153 49.9902 27.206C49.9863 28.4361 49.566 29.5626 48.9012 30.5952C45.7709 35.4611 42.6387 40.325 39.5202 45.1986C39.3657 45.4392 39.2778 45.7619 39.2699 46.0513C39.2406 47.0585 39.2621 48.0696 39.2563 49.0768C39.2523 49.732 38.9923 49.998 38.3393 49.998C34.4504 50.0019 30.5615 49.9999 26.6727 49.998C26.0314 49.998 25.7518 49.7535 25.7518 49.1355C25.7479 44.8564 25.7459 40.5753 25.7616 36.2962C25.7694 34.4989 26.485 32.9851 27.7441 31.7237C31.0758 28.3814 34.4152 25.0488 37.7488 21.7084C38.8554 20.5995 40.5995 19.96 42.672 21.2039ZM37.7899 48.5155C37.7899 47.569 37.8075 46.6752 37.782 45.7814C37.7703 45.3375 37.8915 44.9698 38.132 44.5982C41.3053 39.6835 44.4649 34.759 47.6342 29.8423C48.1758 29.0033 48.5219 28.0997 48.5238 27.1004C48.5356 21.2743 48.5297 15.4501 48.5297 9.62403C48.5297 9.54188 48.5297 9.4617 48.5219 9.37956C48.3772 7.70742 46.5589 6.78627 45.159 7.68786C44.4258 8.16114 44.1364 8.86716 44.1364 9.72572C44.1403 14.4292 44.1266 19.1308 44.1481 23.8343C44.154 25.1016 43.718 26.1303 42.8284 27.0163C39.5867 30.2413 36.3587 33.4799 33.1248 36.7108C32.9997 36.8359 32.8687 36.9631 32.7201 37.0609C32.4053 37.2701 32.0944 37.2232 31.8305 36.9689C31.5626 36.7088 31.543 36.39 31.7307 36.081C31.8383 35.9031 31.9947 35.7525 32.1433 35.6038C35.3635 32.3808 38.5856 29.1597 41.8058 25.9367C42.8792 24.8611 42.9594 23.5546 42.0131 22.6198C41.0668 21.683 39.7802 21.7749 38.6951 22.8564C37.8896 23.6602 37.084 24.468 36.2785 25.2718C33.8052 27.7457 31.3358 30.2237 28.8566 32.6918C27.8438 33.699 27.2377 34.8841 27.2338 36.3294C27.2221 40.3152 27.226 44.3029 27.226 48.2887C27.226 48.363 27.2553 48.4373 27.2729 48.5136H37.7918L37.7899 48.5155Z" fill="white"/>
<path d="M6.61443 7.35729C7.31438 8.3019 7.34371 9.34821 7.33784 10.418C7.32025 13.819 7.33198 17.22 7.33198 20.621V21.0825C7.99283 20.8909 8.62631 20.6151 9.2813 20.5389C10.3899 20.4117 11.3636 20.8322 12.1496 21.6145C15.5829 25.039 19.0142 28.4654 22.426 31.9094C23.6989 33.1963 24.2619 34.7902 24.26 36.5953C24.2541 40.7278 24.26 44.8622 24.2561 48.9946C24.2561 49.7789 24.0234 49.9979 23.2277 49.9979C19.4033 49.9979 15.5809 49.9979 11.7566 49.9979C10.9823 49.9979 10.7496 49.7593 10.7477 48.9711C10.7477 47.9776 10.7633 46.9861 10.736 45.9926C10.7301 45.7344 10.648 45.445 10.5111 45.2299C7.41801 40.3992 4.31708 35.5725 1.20442 30.7536C0.394976 29.5019 -0.0038819 28.1584 2.84727e-05 26.6622C0.0176252 20.9985 0.00393885 15.3366 0.00980441 9.67286C0.00980441 7.6702 1.30414 6.12518 3.24564 5.91983C3.86739 5.85334 4.51847 6.13301 5.15586 6.13301C5.77761 6.13301 6.41109 5.85529 7.01719 5.91788C8.91959 6.11736 10.2452 7.64478 10.2569 9.56921C10.2745 12.4167 10.2628 15.2643 10.2608 18.1118C10.2608 18.7122 9.97539 19.0584 9.5081 19.0447C9.05841 19.031 8.79837 18.7005 8.79642 18.1196C8.79446 15.3053 8.79837 12.4891 8.7925 9.67482C8.79055 8.44467 8.06126 7.55873 6.91161 7.35924C6.83732 7.34555 6.75715 7.35924 6.61443 7.35924V7.35729ZM22.7584 48.5155C22.7682 48.3571 22.7819 48.2456 22.7819 48.1321C22.7819 44.2755 22.778 40.4188 22.7858 36.5621C22.7897 35.0288 22.2246 33.7595 21.1434 32.6839C17.845 29.4022 14.5603 26.1048 11.2678 22.8153C11.1407 22.6882 11.0116 22.563 10.8728 22.4535C9.81116 21.6125 8.25092 21.9392 7.60962 23.1321C7.10909 24.065 7.28701 25.0233 8.13556 25.8741C11.3538 29.0971 14.5779 32.3182 17.7981 35.5412C17.8665 35.6097 17.9369 35.6781 18.0053 35.7485C18.4492 36.2042 18.5098 36.6579 18.1676 36.9787C17.8157 37.3111 17.4344 37.2662 16.9769 36.8085C13.6727 33.5092 10.3723 30.204 7.06998 26.9028C6.2449 26.0794 5.85581 25.0918 5.85972 23.9223C5.87145 19.7722 5.86559 15.6241 5.86363 11.4741C5.86363 10.8072 5.88514 10.1383 5.85581 9.47338C5.77956 7.74452 3.92213 6.76275 2.48898 7.68976C1.73623 8.17674 1.46837 8.90426 1.46837 9.77847C1.47619 15.4422 1.47619 21.1041 1.46837 26.7678C1.46837 27.8924 1.76556 28.9074 2.37363 29.8501C5.54298 34.7667 8.70257 39.6912 11.8758 44.606C12.1163 44.9795 12.2297 45.3492 12.218 45.7911C12.1945 46.6947 12.2102 47.6002 12.2102 48.5174H22.7565L22.7584 48.5155Z" fill="white"/>
<path d="M25.0107 2.83778C26.2053 1.39642 27.6717 0.50265 29.4607 0.140842C33.5529 -0.684473 37.6607 2.23933 38.1867 6.36395C38.5288 9.04916 37.8034 11.5192 36.5775 13.8622C34.945 16.9796 32.6007 19.5221 29.9123 21.7438C28.575 22.8487 27.1164 23.807 25.7223 24.8455C25.2375 25.2073 24.8112 25.1956 24.299 24.8651C21.7611 23.2262 19.4188 21.3526 17.3248 19.17C16.9181 18.7456 16.8693 18.3428 17.1801 18.0161C17.5145 17.6661 17.9368 17.6915 18.3669 18.1374C20.2498 20.0873 22.3457 21.777 24.5864 23.3005C24.9168 23.5254 25.1241 23.4941 25.433 23.2868C28.5926 21.1492 31.4745 18.7085 33.7406 15.6126C35.4866 13.2266 36.7418 10.6333 36.8083 7.59997C36.863 5.13185 35.4318 2.91992 33.1892 1.96162C30.9642 1.00918 28.4049 1.49029 26.655 3.2211C26.3128 3.55944 26.0352 3.9721 25.7595 4.37107C25.257 5.10055 24.7232 5.11424 24.2481 4.36716C23.0437 2.47402 21.3114 1.4942 19.0845 1.48442C15.4869 1.46878 12.822 4.66247 13.2346 8.37834C13.5083 10.8504 14.4761 13.033 15.8565 15.061C16.0207 15.3036 16.2025 15.5324 16.359 15.7808C16.6209 16.1973 16.5584 16.6217 16.2162 16.8642C15.8702 17.1067 15.4361 17.0383 15.1643 16.6119C14.4585 15.503 13.7155 14.4098 13.1231 13.2422C12.2413 11.5016 11.7662 9.63001 11.7271 7.66451C11.6645 4.50601 13.5259 1.66826 16.3922 0.541765C19.3602 -0.625801 22.598 0.156487 24.7408 2.55616C24.8151 2.64025 24.8933 2.71848 25.0107 2.84169V2.83778Z" fill="white"/>
</svg>
