<svg width="50" height="57" viewBox="0 0 50 57" fill="none" xmlns="http://www.w3.org/2000/svg">
<path d="M16.4531 33.7291C15.5662 33.9941 14.7317 34.2307 13.9059 34.5001C13.7923 34.5373 13.7049 34.7103 13.6503 34.8418C13.611 34.9338 13.6569 35.0586 13.6394 35.1659C13.4908 36.1275 13.6962 36.7276 14.7797 37.1109C16.1648 37.6016 16.8595 38.8413 16.9927 40.3C17.2287 42.8562 17.4078 45.4188 17.5957 47.9771C17.6852 49.1862 16.9425 50.1061 15.7453 50.266C15.3346 50.3208 14.9086 50.3186 14.4957 50.2813C13.9736 50.2332 13.6918 49.8805 13.7202 49.4074C13.7464 48.9672 14.0588 48.689 14.5591 48.6605C15.9856 48.5795 16.0031 48.5773 15.9004 47.1733C15.7344 44.9216 15.5553 42.67 15.3587 40.4227C15.2538 39.2202 14.2576 38.3397 12.9949 38.2784C11.6361 38.2127 10.5307 38.9639 10.3712 40.2146C10.1571 41.8924 10.061 43.5855 9.91684 45.2699C9.84693 46.0869 9.78795 46.9039 9.71804 47.7187C9.64813 48.5269 9.75955 48.6561 10.5547 48.6605C10.7907 48.6605 11.0288 48.6496 11.2625 48.6758C11.6842 48.724 11.9725 49.0219 11.9376 49.3986C11.9114 49.6834 11.6798 50.0842 11.4329 50.1937C9.78576 50.9319 7.95944 49.7206 8.07086 47.9399C8.23252 45.3422 8.44442 42.7466 8.70657 40.1577C8.88134 38.447 9.92121 37.3519 11.5225 36.8262C11.9332 36.6926 12.0206 36.5108 11.9966 36.1428C11.9747 35.8186 11.9922 35.4901 11.9922 35.0827C11.4788 35.236 11.0179 35.3696 10.5591 35.5076C9.08451 35.9544 7.61646 36.4254 6.13531 36.8437C4.88353 37.1964 4.23253 38.0177 4.02936 39.2706C3.74318 41.0469 3.43733 42.8211 3.13586 44.5953C3.03755 45.1779 2.6618 45.524 2.20741 45.4714C1.70932 45.4145 1.41222 45.0049 1.51489 44.374C1.8404 42.3655 2.15061 40.3504 2.56568 38.3594C2.89337 36.7846 3.94416 35.7989 5.46901 35.3302C7.46135 34.7169 9.4537 34.1058 11.4548 33.5232C11.8699 33.4027 12.0468 33.2406 12.132 32.7763C12.6235 30.0712 14.1418 28.1591 16.6782 27.0771C16.8245 27.0135 16.9687 26.9456 17.0583 26.904C16.4313 25.9096 15.7344 24.97 15.221 23.9383C14.7317 22.9571 14.4171 21.886 14.0632 20.8412C13.9671 20.5587 13.8753 20.4382 13.5586 20.4141C11.8371 20.2805 11.0135 19.3496 11.0048 17.5952C11.0004 16.7344 10.9174 15.7903 11.6383 15.2011C12.298 14.6623 12.298 14.0424 12.2937 13.3284C12.2806 10.9409 12.2565 8.5535 12.3112 6.16823C12.392 2.82799 15.2167 0.0462782 18.5503 0.0221846C22.677 -0.0084799 26.8037 -0.00628958 30.9304 0.0221846C34.2947 0.0440879 37.0866 2.81704 37.2002 6.19233C37.2177 6.70267 37.2242 7.21302 37.2046 7.72336C37.1871 8.2359 36.9009 8.53597 36.4531 8.5535C35.9441 8.57321 35.6666 8.29066 35.6033 7.81755C35.5552 7.45833 35.5749 7.09036 35.5727 6.72677C35.5487 3.69536 33.5192 1.66055 30.5001 1.65617C26.6639 1.65179 22.8278 1.65179 18.9916 1.65617C16.0009 1.66055 13.954 3.68879 13.9343 6.68077C13.919 9.30478 13.9299 11.9288 13.9321 14.5528C13.9321 14.6776 13.943 14.8047 13.9496 14.9361C14.4105 15.0894 14.8518 15.2384 15.3455 15.4026C15.3543 15.223 15.3718 15.0544 15.3718 14.8835C15.3718 12.9692 15.3696 11.057 15.3718 9.14269C15.3761 6.96551 16.7284 5.58999 18.889 5.55932C19.3608 5.55275 19.8349 5.58123 20.3068 5.55275C21.4624 5.48485 22.4717 5.78493 23.387 6.53402C24.2259 7.21959 25.3051 7.19988 26.1527 6.50992C27.02 5.80464 27.9747 5.4958 29.0757 5.55494C29.6372 5.58342 30.203 5.54618 30.7666 5.56589C32.772 5.63379 34.1134 7.01151 34.1265 9.0288C34.1396 10.9409 34.1287 12.8553 34.1287 14.7696C34.1287 14.969 34.1287 15.1683 34.1287 15.4092C34.618 15.2493 35.0724 15.1004 35.5683 14.9361C35.5683 13.9745 35.5661 13.0108 35.5705 12.0493C35.5705 11.8499 35.5858 11.6484 35.6251 11.4557C35.7234 10.9891 36.0315 10.7789 36.4968 10.8271C36.9403 10.873 37.1871 11.1468 37.1958 11.5893C37.2133 12.4457 37.1849 13.3021 37.2242 14.1585C37.2352 14.3907 37.3728 14.6733 37.5454 14.8332C38.0041 15.2559 38.3624 15.7246 38.4105 16.3554C38.4585 16.9884 38.5153 17.6324 38.4454 18.2588C38.3056 19.527 37.4143 20.3112 36.0315 20.4031C35.6142 20.4316 35.4984 20.574 35.411 20.9595C34.9523 23.0009 33.9932 24.8013 32.689 26.4243C32.5973 26.5382 32.5012 26.6478 32.4138 26.7617C32.3941 26.7879 32.3963 26.8296 32.4138 26.7507C33.2963 27.3202 34.2117 27.7889 34.9763 28.4351C36.3417 29.5872 37.1325 31.1138 37.3794 32.8924C37.4274 33.2406 37.5629 33.3874 37.884 33.4816C39.8305 34.0554 41.766 34.6709 43.719 35.2251C45.6808 35.7836 46.7644 37.054 47.0964 39.0581C47.8698 43.7213 48.6737 48.378 49.4689 53.0368C49.7354 54.6007 48.6366 55.9631 47.0527 55.9981C46.3624 56.0134 45.6721 56.0025 44.9796 56.0025C30.8715 56.0025 16.7655 56.0025 2.65743 56.0025C0.807084 56.0025 -0.267736 54.7036 0.0577686 52.8835C0.114568 52.5615 0.153891 52.2351 0.208506 51.9131C0.392011 50.8202 0.579886 49.7272 0.765577 48.6342C0.780869 48.5444 0.807084 48.4568 0.833299 48.3692C0.979667 47.8589 1.33794 47.6092 1.79452 47.699C2.23799 47.7844 2.50233 48.1655 2.41931 48.6934C2.18775 50.1653 1.9387 51.635 1.68311 53.1047C1.528 53.9918 1.8251 54.3619 2.74045 54.3619C5.83165 54.3641 8.92066 54.3619 12.0119 54.3619C23.5203 54.3619 35.0265 54.3619 46.535 54.3619C47.7278 54.3619 47.9637 54.1013 47.7693 52.9382C47.0003 48.367 46.2226 43.798 45.4514 39.2268C45.2439 37.9936 44.582 37.2029 43.3586 36.8503C41.4274 36.2939 39.5115 35.6872 37.4995 35.0761C37.4995 35.8953 37.4995 36.651 37.4995 37.4044C37.4995 37.5315 37.5126 37.6607 37.4973 37.7877C37.3684 38.7997 37.5366 39.4721 38.6945 39.9343C40.3941 40.6155 41.198 42.7028 40.7764 44.5339C40.3591 46.3497 38.7207 47.7252 36.8878 47.8019C34.9697 47.8829 33.257 46.7286 32.6803 44.9698C31.9135 42.6327 33.1041 40.2825 35.422 39.5181C35.5945 39.4612 35.8327 39.2421 35.837 39.0954C35.8676 37.6038 35.8567 36.11 35.8567 34.5855C34.9217 34.3029 34.0063 34.0248 33.0408 33.7335C32.8092 34.2635 32.5776 34.752 32.381 35.2535C30.1571 40.9747 27.9375 46.698 25.718 52.4213C25.5345 52.8944 25.41 53.4573 24.7655 53.4683C24.0861 53.4814 23.9616 52.8966 23.7693 52.406C21.41 46.3672 19.0506 40.3285 16.6891 34.2898C16.6235 34.1233 16.5449 33.9591 16.4444 33.7356L16.4531 33.7291ZM33.9495 17.6236C32.7415 17.4659 32.4924 17.1768 32.4902 15.994C32.4902 13.6789 32.4946 11.3659 32.4902 9.0507C32.4902 8.13295 32.0293 7.3291 31.2625 7.28749C29.7944 7.21083 28.2893 6.85818 26.9304 7.94678C25.6874 8.94118 23.9113 8.93461 22.653 8.00153C21.8076 7.37291 20.9359 7.10788 19.9157 7.20426C19.6099 7.23273 19.2975 7.20645 18.9894 7.20864C17.6459 7.21521 17.0168 7.83945 17.0146 9.17336C17.0124 11.4338 17.0146 13.692 17.0146 15.9524C17.0146 17.179 16.7852 17.4506 15.5116 17.6346C15.5618 18.6005 15.481 19.6081 15.6907 20.5499C16.2784 23.1958 17.6831 25.3796 19.8152 27.0508C22.4367 29.1053 26.0457 29.4054 28.6934 27.6991C32.3133 25.3686 34.2095 22.07 33.9495 17.6236ZM30.0173 32.9931C29.7792 32.3733 29.4864 31.8213 29.3619 31.2321C29.2352 30.6363 29.2767 30.0077 29.2396 29.3221C26.2401 30.7984 23.256 30.7765 20.2172 29.3134C20.2631 30.6539 20.2281 31.8848 19.3936 32.9274C21.1282 34.2285 22.8103 35.4945 24.5034 36.7451C24.6104 36.824 24.8682 36.8371 24.9687 36.7627C26.677 35.5032 28.3701 34.2263 30.0129 32.9931H30.0173ZM36.6781 46.157C38.0981 46.1526 39.2734 44.9611 39.2559 43.5439C39.2406 42.1355 38.0893 40.9966 36.6781 40.99C35.2428 40.9834 34.0784 42.1377 34.0784 43.5702C34.0784 44.9983 35.245 46.1614 36.6781 46.157ZM24.0927 42.3874C23.9048 43.43 23.765 44.4748 23.5181 45.4933C23.3368 46.238 23.4045 46.9017 23.7104 47.5938C24.0796 48.4305 24.3723 49.3001 24.7546 50.2967C25.0976 49.3921 25.3444 48.6167 25.6809 47.8851C26.0763 47.0287 26.1986 46.192 25.9583 45.2611C25.7158 44.3193 25.5826 43.3468 25.4012 42.3874H24.0927ZM35.6623 32.7872C35.4176 30.5925 33.2461 28.5336 30.9785 28.2883C30.9785 29.2104 30.9632 30.1326 30.9894 31.0525C30.996 31.2562 31.0965 31.4949 31.2341 31.6439C31.3652 31.7884 31.5924 31.8892 31.7912 31.9199C32.2652 31.9921 32.7633 31.9549 33.2243 32.0644C34.0304 32.2594 34.8168 32.531 35.6623 32.785V32.7872ZM18.5394 28.2817C15.9288 28.5533 13.9103 31.1314 13.8928 32.7697C14.7492 32.5134 15.5924 32.2506 16.4444 32.0141C16.7371 31.933 17.0517 31.8585 17.3488 31.8804C18.1571 31.9396 18.4673 31.76 18.5263 30.9364C18.5875 30.0712 18.5394 29.1973 18.5394 28.2817ZM18.712 34.476C18.6836 34.5001 18.6552 34.5264 18.6246 34.5504C19.2101 36.0026 19.7978 37.4548 20.392 38.9289C21.3008 38.5412 22.1571 38.1776 23.1074 37.7724C21.5979 36.64 20.1538 35.558 18.7098 34.476H18.712ZM26.3887 37.7724C27.3521 38.1798 28.2106 38.5456 29.1107 38.9267C29.7114 37.4373 30.2969 35.9873 30.8802 34.5351C30.8518 34.5132 30.8256 34.4935 30.7972 34.4716C29.3575 35.5492 27.9157 36.6291 26.3865 37.7724H26.3887ZM26.5634 39.6495C24.6738 38.7778 24.333 38.7843 22.9523 39.7021C23.6011 41.1937 25.978 41.1302 26.5634 39.6495ZM12.6782 16.4693C12.6782 17.0585 12.6367 17.5645 12.6891 18.0639C12.7393 18.5458 13.1653 18.8305 13.6328 18.7495C13.7355 18.7319 13.8928 18.5896 13.8972 18.4998C13.9212 17.8887 13.9103 17.2776 13.9103 16.6467C13.4886 16.5854 13.1347 16.535 12.6782 16.4693ZM36.8288 16.4649C36.3591 16.5372 35.9921 16.5964 35.5945 16.6577C35.5945 17.2118 35.5924 17.72 35.5945 18.2282C35.5989 18.767 35.7453 18.9072 36.2412 18.6969C36.4837 18.5939 36.7589 18.3048 36.8026 18.0617C36.89 17.5732 36.8288 17.0585 36.8288 16.4649ZM22.1396 43.4322C22.1702 43.4234 22.203 43.4147 22.2336 43.4037C22.3122 42.9591 22.404 42.5188 22.463 42.072C22.4826 41.9275 22.4564 41.7369 22.3734 41.6274C22.0785 41.2397 21.7551 40.8739 21.4275 40.5103C21.3685 40.4446 21.2505 40.4337 21.1588 40.3964C21.1325 40.5059 21.0583 40.633 21.091 40.7184C21.4296 41.6252 21.7879 42.5276 22.1396 43.43V43.4322ZM27.28 43.4037C27.3106 43.4147 27.339 43.4234 27.3695 43.4344C27.7213 42.532 28.0774 41.6318 28.4182 40.7228C28.4509 40.6352 28.3745 40.5081 28.3504 40.4008C28.2587 40.4358 28.1473 40.4512 28.0795 40.5125C27.2953 41.2441 26.7164 42.0457 27.2428 43.1935C27.2712 43.257 27.2691 43.3336 27.2822 43.4037H27.28Z" fill="#13AB7B"/>
</svg>
