<svg width="48" height="55" viewBox="0 0 48 55" fill="none" xmlns="http://www.w3.org/2000/svg">
<path d="M46.3504 23.0837C46.2318 19.9697 45.5052 17.0492 44.1726 14.2772C43.2282 12.3138 42.0229 10.5245 40.5437 8.92022C40.4833 8.85355 40.4229 8.78689 40.3669 8.71807C40.0327 8.29226 40.0456 7.83205 40.4014 7.52237C40.7679 7.20409 41.2315 7.22129 41.5808 7.65785C42.5274 8.8471 43.5322 10.0019 44.3473 11.2772C46.9262 15.3224 48.1035 19.7847 47.9935 24.5675C47.9137 28.06 47.0814 31.3847 45.544 34.5331C45.4103 34.8062 45.3284 35.146 45.3456 35.4471C45.5677 39.4665 45.8049 43.4837 46.055 47.5009C46.1973 49.7804 44.6729 51.432 42.3786 51.4385C40.658 51.4428 38.9373 51.4385 37.3007 51.4385C37.3007 52.0708 37.318 52.6665 37.2964 53.2622C37.2576 54.331 36.5784 54.9826 35.511 54.9847C30.1463 54.9869 24.7837 54.9847 19.419 54.989C18.9856 54.989 18.5803 54.8923 18.494 54.4428C18.4423 54.1761 18.5458 53.7933 18.7247 53.5955C18.88 53.4256 19.2422 53.3826 19.5117 53.3826C24.6608 53.3718 29.8099 53.374 34.9569 53.374H35.6469C35.6469 52.9482 35.6771 52.5589 35.6382 52.1761C35.5973 51.7503 35.3019 51.5181 34.8922 51.4493C34.7175 51.4191 34.5343 51.4385 34.3553 51.4385C27.5567 51.4385 20.7559 51.46 13.9573 51.4213C12.4134 51.4127 12.2043 51.8471 12.4048 53.374C13.4312 53.374 14.4662 53.374 15.5011 53.374C15.6801 53.374 15.8612 53.3632 16.038 53.3783C16.4952 53.4213 16.8121 53.7611 16.7927 54.1955C16.7712 54.6557 16.506 54.9611 16.0596 54.9718C14.768 55.0019 13.4764 55.0127 12.1849 54.9697C11.4323 54.9439 10.8049 54.303 10.7466 53.5374C10.6971 52.8643 10.7359 52.1869 10.7359 51.4406C10.641 51.4406 10.4534 51.4406 10.268 51.4406C8.70684 51.4406 7.14573 51.4471 5.58677 51.4406C3.35937 51.4299 1.82413 49.7847 1.95566 47.5611C2.19501 43.5611 2.44082 39.5611 2.6586 35.5611C2.678 35.1912 2.58744 34.7761 2.42357 34.4428C-4.10983 21.1159 3.1265 4.92452 17.4094 0.913767C17.7868 0.80839 18.1123 0.535272 18.4789 0.378283C18.8325 0.227745 19.2056 0.0255945 19.5721 0.0212934C22.5326 -0.00666361 25.4932 -0.00881415 28.4515 0.0212934C28.8181 0.0255945 29.1889 0.236347 29.5426 0.386885C29.8768 0.52882 30.1722 0.778283 30.5129 0.879358C33.5532 1.77398 36.3433 3.15678 38.823 5.13097C39.0731 5.33097 39.3211 5.69656 39.334 5.99549C39.3599 6.66215 38.5966 6.92022 37.9799 6.51162C36.8328 5.75033 35.7072 4.95033 34.5192 4.25785C33.1737 3.47506 31.7204 2.92237 30.1549 2.48581C30.1549 3.10732 30.1247 3.67721 30.1765 4.2385C30.1894 4.38688 30.4374 4.57613 30.6164 4.6385C33.6222 5.69871 36.2743 7.32452 38.506 9.59549C42.0272 13.1783 44.0088 17.4708 44.3689 22.4901C44.3796 22.632 44.3947 22.7761 44.4141 22.9159C44.4206 22.9675 44.4486 23.0148 44.4745 23.0794H46.3504V23.0837ZM17.8126 6.21484C13.5002 7.78688 10.1817 10.4923 7.85082 14.3761C6.24442 17.0514 5.35605 19.946 5.23961 23.0794H10.7186C11.3051 15.9159 17.0472 10.9224 23.4706 10.6901C26.4893 10.5826 29.2579 11.3761 31.7053 13.1417C35.0906 15.5869 36.9126 18.9439 37.2899 23.0815H42.784C42.5533 18.8084 41.072 15.0751 38.3508 11.8385C36.1557 9.22775 33.4389 7.36108 30.1937 6.22559C29.9393 7.92882 29.0143 8.72022 27.3367 8.72237C25.1115 8.72452 22.8884 8.72452 20.6632 8.72237C18.9835 8.72022 18.0822 7.94387 17.8105 6.21269L17.8126 6.21484ZM18.5458 26.789C17.2348 24.0536 17.7932 21.1568 20.0724 19.2191C22.1186 17.4794 25.2322 17.3267 27.4683 18.8665C28.6262 19.6643 29.4412 20.731 29.866 22.0729C30.3964 23.7546 30.211 25.3826 29.4693 26.7955C29.7819 27.3933 30.0363 27.8837 30.3404 28.4665C30.8859 28.4665 31.563 28.4686 32.2422 28.4665C32.8373 28.4643 33.3268 28.688 33.6825 29.1632C33.8292 29.3589 33.9305 29.589 34.0577 29.8127C36.6905 25.5202 36.2442 19.1869 31.7549 15.2493C27.2203 11.2729 20.6589 11.3009 16.2084 15.2858C11.6846 19.3353 11.3892 25.6751 13.981 29.8449C14.3713 28.6514 15.264 28.3804 16.3701 28.46C16.8488 28.4944 17.3318 28.4665 17.6703 28.4665C17.9787 27.8794 18.2331 27.389 18.5458 26.789ZM35.2135 37.3589C35.2135 37.2643 35.2243 37.2256 35.2135 37.1955C34.3035 34.9073 33.3936 32.6191 32.4729 30.3374C32.4298 30.2299 32.2853 30.0966 32.184 30.0923C31.5241 30.0708 30.8643 30.0815 30.2175 30.0815C29.9566 31.4277 29.4089 31.8729 28.0655 31.8729C25.3767 31.8729 22.6857 31.8729 19.9969 31.8729C18.6126 31.8729 18.0973 31.4622 17.7932 30.0794C17.2348 30.0794 16.6634 30.0987 16.0941 30.0729C15.7534 30.0557 15.6003 30.174 15.4731 30.4944C14.6279 32.6536 13.7568 34.7998 12.8964 36.9525C12.8468 37.0751 12.8188 37.2062 12.7735 37.3589H35.2178H35.2135ZM29.2795 39.0041C29.2795 39.5654 29.2795 40.0815 29.2795 40.5976C29.2752 41.8471 28.6024 42.5331 27.3669 42.5353C25.1244 42.5396 22.8819 42.5396 20.6395 42.5353C19.4255 42.5353 18.7377 41.8493 18.7312 40.6471C18.729 40.1009 18.7312 39.5546 18.7312 39.0256H12.3379C12.3379 40.5116 12.3293 41.9589 12.3423 43.4084C12.3487 44.1718 12.6635 44.4708 13.4355 44.4708C20.4842 44.4729 27.5351 44.4729 34.5838 44.4708C35.3472 44.4708 35.6598 44.1654 35.6663 43.3976C35.6771 42.0385 35.6706 40.6772 35.6663 39.3181C35.6663 39.2191 35.6382 39.1181 35.621 39.0062H29.2752L29.2795 39.0041ZM14.1319 49.7826H33.8594V46.1224H14.1319V49.7826ZM12.4673 49.8213V45.9847C11.6674 45.6772 11.1067 45.1245 10.8092 44.2923C10.7165 44.032 10.531 43.7589 10.3089 43.6019C8.06644 42.0148 6.1172 40.1353 4.51296 37.9052C4.43534 37.7976 4.33399 37.7052 4.17443 37.5288C4.12484 38.3654 4.08387 39.0966 4.04075 39.8256C3.88334 42.503 3.71084 45.1804 3.57284 47.8579C3.51894 48.9224 4.30165 49.7955 5.36467 49.8127C7.71066 49.8471 10.0588 49.8234 12.4673 49.8234V49.8213ZM35.5434 49.8256C37.8613 49.8256 40.1168 49.8299 42.3743 49.8256C43.7349 49.8213 44.5176 48.9503 44.4335 47.5912C44.2848 45.2191 44.1597 42.845 44.0195 40.4708C43.9635 39.5245 43.8966 38.5761 43.8298 37.5568C43.7047 37.6643 43.6573 37.6923 43.6293 37.731C41.9496 40.0858 39.9141 42.0794 37.525 43.7138C37.415 43.789 37.2856 43.9073 37.2619 44.0256C37.0527 45.0041 36.4361 45.6213 35.5455 45.9955V49.8256H35.5434ZM37.0678 37.4407C40.6192 33.8837 42.5145 29.7181 42.7797 24.7869H37.2727C37.0916 27.2686 36.3175 29.4987 34.9202 31.5138C34.8534 31.6105 34.8189 31.7869 34.8598 31.8923C35.5757 33.7181 36.3067 35.5374 37.0678 37.4407ZM5.22236 24.7783C5.50483 29.7396 7.39801 33.9116 10.9429 37.4385C11.6997 35.5482 12.4307 33.731 13.1422 31.9052C13.1897 31.7804 13.1056 31.5783 13.0344 31.4385C12.5406 30.4708 11.9239 29.5503 11.5595 28.5374C11.1305 27.3417 10.9148 26.0686 10.5936 24.7804H5.22236V24.7783ZM24.0032 26.6923C25.0597 26.6923 26.1163 26.6815 27.1729 26.6987C27.5006 26.7052 27.7033 26.5998 27.8672 26.3181C28.3049 25.5589 28.5442 24.7568 28.5334 23.8729C28.5097 21.9912 27.2936 20.288 25.5082 19.6643C23.6992 19.0342 21.6895 19.6062 20.4691 21.1009C19.2853 22.5503 19.1495 24.6579 20.1133 26.2686C20.3009 26.5847 20.5166 26.7073 20.8874 26.6987C21.9267 26.6751 22.966 26.6901 24.0032 26.6901V26.6923ZM17.8558 2.47291C12.8511 3.95678 8.82975 6.72452 5.81748 10.9073C3.19981 14.5374 1.84354 18.6041 1.65595 23.0966H3.57284C3.59656 22.8815 3.62675 22.6901 3.64184 22.4966C3.9739 17.7353 5.79377 13.6084 9.0195 10.103C11.3418 7.57828 14.1578 5.78473 17.3965 4.6428C17.5754 4.58043 17.8234 4.39119 17.8385 4.2428C17.8903 3.67936 17.8601 3.10731 17.8601 2.47291H17.8558ZM19.4837 1.6428C19.4837 3.22129 19.4643 4.76968 19.4967 6.32022C19.5074 6.80839 19.8567 7.09656 20.357 7.09871C22.7935 7.10731 25.2279 7.10731 27.6645 7.09871C28.1389 7.09871 28.4989 6.82129 28.5097 6.36538C28.5485 4.79979 28.5248 3.23205 28.5248 1.6428H19.4859H19.4837ZM37.305 41.8019C41.8935 39.4105 46.8162 30.0729 46.303 24.7439C45.8157 24.7439 45.3176 24.7611 44.8238 24.7374C44.4896 24.7224 44.3904 24.8665 44.371 25.1718C44.3344 25.7589 44.3042 26.3503 44.2114 26.931C43.4374 31.7589 41.266 35.8363 37.6198 39.1202C37.4926 39.2342 37.3244 39.3912 37.3201 39.5353C37.2899 40.2772 37.305 41.0213 37.305 41.7998V41.8019ZM10.5375 41.7847C10.5957 41.7718 10.6518 41.7568 10.71 41.7439C10.71 41.1783 10.6776 40.6105 10.7208 40.0471C10.7574 39.5675 10.5655 39.26 10.2184 38.9482C7.9306 36.8923 6.22286 34.4234 5.06927 31.5804C4.25206 29.5632 3.75828 27.4686 3.63106 25.2901C3.62028 25.1052 3.46503 24.7847 3.35291 24.7718C2.80738 24.7181 2.25322 24.7482 1.63007 24.7482C2.05269 31.8256 5.02399 37.4686 10.5375 41.7847ZM28.514 28.3611H19.5139V30.2062H28.514V28.3611ZM27.6321 40.8987V39.0213H20.398V40.8987H27.6321Z" fill="white"/>
</svg>
