<svg width="49" height="43" viewBox="0 0 49 43" fill="none" xmlns="http://www.w3.org/2000/svg">
<path d="M30.5 1.76177C30.5 2.10548 30.5095 2.44919 30.4981 2.7929C30.483 3.22676 30.1976 3.52915 29.8101 3.54229C29.4075 3.55544 29.0937 3.23991 29.0861 2.78351C29.0748 2.11299 29.0748 1.4406 29.0861 0.77009C29.0937 0.3043 29.3905 -0.0037224 29.7969 3.39769e-05C30.2032 0.00379035 30.4811 0.311813 30.5 0.777603C30.5 0.792628 30.5 0.809532 30.5 0.824558C30.5 1.13634 30.5 1.44999 30.5 1.76177Z" fill="white"/>
<path d="M27.7895 3.33942C27.5268 3.59861 27.3586 3.89348 27.1261 3.95734C26.9125 4.01744 26.5174 3.90851 26.3965 3.73759C26.0033 3.17977 25.6555 2.57687 25.3871 1.95144C25.3039 1.75798 25.4514 1.34854 25.6291 1.19829C25.7878 1.06493 26.2868 1.04052 26.3776 1.16072C26.8747 1.82748 27.2924 2.55246 27.7895 3.33942Z" fill="white"/>
<path d="M32.7945 4.02102C32.1991 4.02853 31.8041 3.55147 32.0007 3.127C32.2936 2.49406 32.6471 1.88177 33.027 1.2939C33.2255 0.985873 33.579 0.931405 33.906 1.13237C34.2367 1.33709 34.3842 1.64699 34.1933 2.01324C33.8984 2.58045 33.5903 3.14203 33.2463 3.67919C33.1348 3.85574 32.8928 3.94965 32.7945 4.01914V4.02102Z" fill="white"/>
<path d="M30.1617 22.4385C28.5588 22.4385 26.9559 22.4422 25.3512 22.4385C24.3645 22.4366 23.9411 22.0234 23.9373 21.0449C23.9298 19.0296 23.9298 17.0161 23.9373 15.0009C23.9411 14.0035 24.3739 13.5903 25.3833 13.5903C27.7101 13.5903 30.0369 13.5903 32.3619 13.5903C33.0934 13.5903 33.4298 13.8063 33.7001 14.4712C34.5469 16.5504 35.3918 18.6295 36.2292 20.7105C36.6053 21.6478 36.0799 22.431 35.0667 22.4366C33.4317 22.4479 31.7967 22.4403 30.1617 22.4403V22.4385ZM25.3965 14.9971V20.9904H34.7908C34.7152 20.7875 34.6584 20.6298 34.5961 20.4758C34.0479 19.1178 33.5017 17.758 32.9478 16.402C32.7607 15.9418 32.6738 15.3126 32.326 15.0779C31.9763 14.8431 31.3582 14.999 30.8573 14.9971C29.0522 14.9933 27.247 14.9971 25.3965 14.9971Z" fill="white"/>
<path d="M35.978 38.1893C34.7986 38.1911 33.8554 37.2633 33.8516 36.0932C33.8478 34.9363 34.8042 33.9784 35.9686 33.9746C37.131 33.9709 38.0913 34.9231 38.095 36.0838C38.0988 37.2502 37.1594 38.1874 35.978 38.1893ZM35.9497 35.402C35.5622 35.4133 35.2787 35.7101 35.2843 36.1007C35.29 36.5121 35.6 36.7938 36.0196 36.7694C36.4109 36.7468 36.6793 36.4482 36.6604 36.0538C36.6434 35.6687 36.3372 35.3889 35.9478 35.402H35.9497Z" fill="white"/>
<path d="M13.4088 17.6475C14.2669 17.6475 15.0646 17.6475 15.8641 17.6475C17.0455 17.6512 17.4916 18.0907 17.4935 19.2533C17.4935 19.706 17.5029 20.1586 17.4878 20.6113C17.4651 21.3513 16.9907 21.8415 16.244 21.864C15.4899 21.8884 14.7357 21.8715 13.9815 21.8734C13.8114 21.8734 13.6413 21.8734 13.4107 21.8734C13.4107 22.7092 13.4107 23.4999 13.4107 24.2906C13.4107 25.5152 12.9646 25.9641 11.7473 25.9641C11.322 25.9641 10.8986 25.9716 10.4733 25.9622C9.69077 25.9434 9.17475 25.4401 9.16152 24.6681C9.14829 23.7629 9.15774 22.8595 9.15774 21.9016C8.93091 21.8922 8.73245 21.8753 8.53398 21.8753C7.79491 21.8715 7.05585 21.8884 6.31679 21.8678C5.57394 21.8471 5.07872 21.3719 5.03902 20.6338C5.00878 20.0572 5.00689 19.4768 5.03902 18.9002C5.08628 18.1208 5.60608 17.6719 6.46422 17.6494C7.17115 17.6325 7.87808 17.6456 8.5869 17.6456C8.75702 17.6456 8.92524 17.6456 9.15585 17.6456C9.15585 16.853 9.19365 16.1055 9.14829 15.3636C9.06701 14.0695 9.63028 13.476 10.9704 13.5812C11.3144 13.6075 11.6622 13.5812 12.0081 13.5868C12.8663 13.5944 13.3918 14.094 13.4069 14.9504C13.422 15.8238 13.4107 16.6952 13.4107 17.6456L13.4088 17.6475ZM6.47745 20.3878C6.53038 20.4159 6.55684 20.4422 6.5833 20.4422C7.44712 20.4497 8.31093 20.4573 9.17664 20.4591C10.2522 20.4629 10.5792 20.7878 10.5792 21.8621C10.5792 22.7468 10.5792 23.6314 10.5792 24.5329H11.9892C11.9892 23.545 11.9855 22.5815 11.9892 21.618C11.993 20.8423 12.354 20.4779 13.1441 20.4629C13.8038 20.4497 14.4654 20.4591 15.1251 20.4591C15.4313 20.4591 15.7375 20.4591 16.0342 20.4591V19.0618C15.8282 19.0618 15.6562 19.0618 15.4861 19.0618C14.6846 19.0618 13.8813 19.0693 13.0799 19.058C12.337 19.0486 11.9968 18.6974 11.9873 17.9536C11.9817 17.4071 11.9873 16.8605 11.9873 16.314C11.9873 15.882 11.9873 15.4519 11.9873 15.0237H10.5773C10.5773 16.0003 10.5829 16.9507 10.5773 17.901C10.5716 18.6786 10.1992 19.0524 9.42425 19.0599C8.6058 19.0674 7.78924 19.0599 6.97079 19.0636C6.80635 19.0636 6.64001 19.0824 6.47934 19.0937V20.3878H6.47745Z" fill="white"/>
<path d="M5.34924 36.7842C4.82566 36.7842 4.30775 36.7635 3.79361 36.7879C1.48948 36.8912 -0.0321222 35.0318 1.09907e-05 33.0391C0.0586068 29.5081 0.0113521 25.9771 0.0264736 22.4442C0.0264736 22.1982 0.0926301 21.8789 0.255186 21.7286C0.412072 21.5821 0.748525 21.5314 0.977237 21.5784C1.32125 21.6497 1.43844 21.9578 1.43655 22.3052C1.43277 23.8059 1.43655 25.3047 1.43655 26.8054C1.43655 26.9744 1.43655 27.1434 1.43655 27.3406H21.0642V12.1856C20.8828 12.1856 20.7146 12.1856 20.5444 12.1856C14.9457 12.1856 9.34509 12.1856 3.74636 12.1856C2.30226 12.1856 1.43655 13.0514 1.43466 14.4939C1.43277 15.9476 1.43466 17.4013 1.43466 18.8531C1.43466 19.2663 1.24942 19.5462 0.822242 19.61C0.442315 19.6664 0.183359 19.4842 0.0548264 19.1367C0.0132423 19.024 0.0189129 18.8907 0.0189129 18.7667C0.0170227 17.2661 0.00946192 15.7673 0.0189129 14.2666C0.0321442 12.3358 1.58588 10.7826 3.53277 10.7807C11.0198 10.7732 18.5068 10.7769 25.9939 10.7769C26.181 10.7769 26.37 10.7769 26.6308 10.7769C26.6308 10.375 26.6308 9.99184 26.6308 9.60869C26.6365 7.76056 28.0069 6.36694 29.812 6.37258C31.5869 6.37633 32.946 7.7737 32.9535 9.60306C32.9535 9.97682 32.9535 10.3487 32.9535 10.7262C33.3183 10.7919 33.6623 10.822 33.9874 10.9197C35.1329 11.2615 35.8909 12.0222 36.3388 13.1134C37.3217 15.5081 38.3235 17.8952 39.2913 20.2974C39.5389 20.9116 39.917 21.2854 40.5634 21.4863C42.2702 22.016 43.9601 22.5963 45.6556 23.1579C47.4512 23.7514 48.3377 24.9666 48.3377 26.8298C48.3377 28.939 48.3396 31.0482 48.3377 33.1593C48.334 35.2553 46.8426 36.7579 44.7294 36.786C43.9109 36.7973 43.0944 36.7954 42.2759 36.786C42 36.7823 41.8695 36.8405 41.8128 37.156C41.3063 39.9508 38.8358 41.9999 35.991 42.0055C33.1255 42.013 30.6456 39.9639 30.1334 37.1429C30.0823 36.8593 29.9727 36.786 29.7081 36.786C25.6498 36.7917 21.5916 36.7917 17.5334 36.786C17.2517 36.786 17.1572 36.8931 17.1062 37.1504C16.5221 40.0935 14.0346 42.0863 11.0595 42.0036C8.29604 41.9266 5.96355 39.9057 5.40972 37.1091C5.39271 37.0189 5.3757 36.9288 5.34924 36.7917V36.7842ZM22.5632 35.3135C22.6331 35.3361 22.6766 35.3605 22.7182 35.3605C25.0771 35.3643 27.4361 35.3699 29.795 35.353C29.9065 35.353 30.0899 35.1577 30.1145 35.0281C30.6645 32.2164 33.0972 30.1899 35.9495 30.1842C38.8396 30.1786 41.2817 32.1864 41.8147 35.0281C41.862 35.2797 41.9395 35.3755 42.1965 35.3718C43.0925 35.3605 43.9903 35.3812 44.8863 35.3605C45.8578 35.3361 46.6366 34.7219 46.835 33.7659C46.9371 33.2682 46.9125 32.7423 46.9182 32.2296C46.9296 31.0933 46.922 29.9588 46.922 28.7793C46.7046 28.7793 46.5345 28.7793 46.3663 28.7793C43.0641 28.7793 39.762 28.7793 36.4579 28.7793C36.301 28.7793 36.1366 28.7962 35.9892 28.7587C35.6281 28.6685 35.407 28.4262 35.4221 28.0525C35.4391 27.6637 35.6716 27.4214 36.0723 27.3763C36.2122 27.3594 36.3559 27.3707 36.4957 27.3707C39.7828 27.3707 43.0698 27.3707 46.3568 27.3707C46.5383 27.3707 46.7197 27.3707 46.8955 27.3707C47.0241 25.639 46.5723 24.9478 45.0053 24.4257C43.3571 23.8773 41.7126 23.3101 40.0531 22.7954C39.0645 22.4874 38.418 21.8977 38.0306 20.9379C37.0571 18.5226 36.044 16.1222 35.046 13.7182C34.5904 12.6213 33.9459 12.1856 32.7739 12.1856C29.5342 12.1856 26.2944 12.1856 23.0546 12.1856C22.8902 12.1856 22.7257 12.1856 22.5707 12.1856V27.3726H23.1151C26.2282 27.3726 29.3433 27.3726 32.4564 27.3726C32.5982 27.3726 32.7418 27.3613 32.8798 27.3782C33.2559 27.4233 33.4847 27.6374 33.5187 28.013C33.5546 28.4168 33.3316 28.6629 32.9535 28.7624C32.8061 28.8 32.6416 28.7831 32.4848 28.7831C29.3546 28.7831 26.2263 28.7831 23.0962 28.7831H22.5632V35.3173V35.3135ZM21.0661 35.3661V28.8038H1.44789C1.44789 30.4002 1.40442 31.9741 1.46491 33.5462C1.49893 34.4252 2.25311 35.2215 3.09803 35.3154C3.83898 35.3981 4.59694 35.3323 5.36814 35.3323C5.38326 35.2459 5.39271 35.1727 5.40783 35.0994C6.1261 31.482 9.66264 29.3372 13.1141 30.4829C15.2973 31.2078 16.6204 32.7517 17.1156 34.9924C17.1459 35.1332 17.3122 35.3492 17.4181 35.3511C18.624 35.3774 19.83 35.368 21.0642 35.368L21.0661 35.3661ZM35.957 31.5929C33.4733 31.5985 31.4414 33.6344 31.4489 36.1061C31.4565 38.5666 33.5206 40.5988 35.9986 40.5875C38.4766 40.5762 40.5162 38.5309 40.5067 36.0648C40.4972 33.5988 38.4521 31.5853 35.957 31.591V31.5929ZM15.7887 36.0892C15.7887 33.6006 13.7757 31.5947 11.2769 31.5929C8.79316 31.5929 6.74419 33.6194 6.74041 36.0836C6.73663 38.5365 8.79883 40.5856 11.2712 40.5875C13.7587 40.5875 15.7887 38.5666 15.7887 36.0874V36.0892ZM31.5359 10.7544C31.5359 10.2811 31.551 9.86037 31.5321 9.44153C31.4962 8.59259 30.8422 7.88827 30.0181 7.78685C29.158 7.67979 28.3245 8.19442 28.1373 9.05275C28.0182 9.5993 28.056 10.1815 28.022 10.7563H31.534L31.5359 10.7544Z" fill="white"/>
<path d="M9.15969 36.0727C9.16536 34.9063 10.1218 33.9616 11.288 33.9747C12.4486 33.9879 13.4183 34.9608 13.4069 36.1027C13.3956 37.2597 12.4316 38.1969 11.2578 38.1894C10.0689 38.1819 9.15402 37.2597 9.15969 36.0727ZM11.978 36.0764C11.9704 35.7121 11.6453 35.3984 11.271 35.3984C10.8628 35.3984 10.5641 35.7121 10.583 36.1234C10.6 36.5122 10.8968 36.7826 11.2956 36.7714C11.6718 36.762 11.9855 36.4427 11.978 36.0764Z" fill="white"/>
</svg>
