<svg width="42" height="30" viewBox="0 0 42 30" fill="none" xmlns="http://www.w3.org/2000/svg">
<path d="M2.45663 28.791C2.60095 28.8005 2.74848 28.7941 2.88959 28.8226C3.21672 28.8874 3.40915 29.0929 3.41877 29.4233C3.42839 29.7379 3.17503 29.9781 2.82545 29.9908C2.49191 30.0034 2.15837 29.9971 1.82482 29.9939C1.4544 29.9892 1.22188 29.7726 1.22188 29.4359C1.22349 27.5042 1.16415 25.5678 1.30046 23.644C1.42393 21.9083 3.08683 20.552 4.86198 20.5203C5.26929 20.5124 5.67819 20.5203 6.08871 20.5203C5.51944 20.0113 4.94216 19.5529 4.43543 19.0265C3.59516 18.1555 3.05636 17.1059 2.7148 15.9519C2.67792 15.8286 2.55445 15.6689 2.44059 15.6389C1.06794 15.288 0.219653 14.4343 0.0320355 13.0591C-0.152375 11.7091 0.469809 10.699 1.62919 10.0098C1.50411 9.12926 1.3213 8.25351 1.26518 7.36985C1.17538 5.98035 1.15453 4.58768 1.1385 3.19502C1.13208 2.66388 1.50732 2.43941 2.0397 2.59907C2.51115 2.73976 2.9842 2.8757 3.44603 3.0401C3.66732 3.11914 3.78278 3.05907 3.91106 2.88677C5.22118 1.12262 6.99793 0.216834 9.20604 0.069822C10.6493 -0.0266054 12.0796 -0.086675 13.4908 0.322746C16.8278 1.29018 19.2235 4.35215 19.3053 7.77611C19.3229 8.51276 19.3053 9.2494 19.3197 9.98446C19.3213 10.1172 19.355 10.2816 19.44 10.3749C20.1873 11.2048 20.1905 11.2017 20.524 12.3003C20.8159 11.9841 20.9233 11.6459 20.9073 11.1906C20.8592 9.82796 20.8319 8.46533 21.2905 7.1359C22.3777 3.98857 25.3892 1.80077 28.7471 1.80077C29.2619 1.80077 29.7766 1.81184 30.2913 1.81026C32.5957 1.80552 34.536 2.68759 36.1043 4.35057C36.4298 4.69518 36.4506 5.03188 36.1877 5.28639C35.9102 5.55354 35.5575 5.50928 35.2191 5.1536C33.9491 3.81627 32.3952 3.07962 30.5319 2.98636C30.2994 2.97529 30.1534 2.98636 30.0652 3.26774C30.0155 3.42739 29.7333 3.61234 29.5585 3.60918C29.3661 3.60602 29.0774 3.44004 29.0101 3.27248C28.8962 2.99584 28.7439 2.97529 28.4986 2.98636C24.9803 3.13811 22.1324 6.04042 22.0971 9.51813C22.0939 9.91016 22.0971 10.3006 22.0971 10.7369C23.0737 10.7369 24.0166 10.7448 24.9595 10.7337C25.4518 10.7274 25.9521 10.7385 26.4316 10.6531C27.809 10.4081 28.8337 9.21778 28.9139 7.83934C28.9219 7.70972 28.9347 7.57536 28.9748 7.45205C29.0678 7.16593 29.2907 7.01734 29.5842 7.04579C29.8712 7.07425 30.0733 7.24181 30.1182 7.5469C30.1631 7.84567 30.1807 8.15076 30.2593 8.44004C30.6249 9.7916 31.8356 10.7211 33.2515 10.7337C34.4398 10.7448 35.6264 10.7353 36.8147 10.7337C36.8531 10.7337 36.8916 10.7227 36.9686 10.7116C37.0215 9.71889 37.0007 8.7309 36.7072 7.76347C36.6848 7.68759 36.6623 7.61329 36.6399 7.53742C36.51 7.09164 36.6383 6.79129 37.0071 6.67273C37.3551 6.56208 37.6469 6.75651 37.7928 7.20071C38.2627 8.62815 38.2563 10.0904 38.136 11.5637C38.1296 11.6348 38.1376 11.7265 38.1777 11.7786C38.848 12.667 38.9282 13.6282 38.5289 14.6572C39.6369 15.2564 40.4211 16.121 40.7819 17.3114C40.8989 17.6971 40.9759 18.1065 40.9855 18.508C41.0128 19.7047 40.9968 20.9013 40.9952 22.098C40.9952 22.6133 40.7915 22.8267 40.2768 22.8251C39.3483 22.822 38.4118 22.9073 37.4064 22.5248C38.051 23.5049 37.9756 24.5071 37.9724 25.4998C37.9692 26.736 37.9724 27.9721 37.9724 29.2083C37.9724 29.8248 37.7944 29.9971 37.161 29.9971C32.0905 29.9971 27.0201 29.9971 21.948 29.9971C21.3001 29.9971 21.1334 29.828 21.1334 29.1719C21.1334 28.0275 21.127 26.8846 21.1334 25.7401C21.1398 24.673 20.9907 23.5823 21.6273 22.6497C20.7694 22.7319 19.9419 22.8109 19.1401 22.8868C19.4865 25.0019 19.2428 27.1691 19.3069 29.3269C19.3213 29.8043 19.0936 29.9955 18.5805 29.9955C14.3102 29.9971 10.0399 29.9971 5.7696 29.9955C5.27089 29.9955 5.03356 29.8058 5.02875 29.4201C5.02394 29.0281 5.28692 28.8099 5.78884 28.8099C8.91098 28.8084 12.0331 28.8099 15.1569 28.8099C16.1174 28.8099 17.0763 28.8099 18.0754 28.8099C18.085 28.6835 18.1026 28.5712 18.1026 28.459C18.1042 27.0916 18.109 25.7243 18.1026 24.3569C18.0962 22.7492 17.0234 21.7075 15.3846 21.7043C14.8666 21.7043 14.3487 21.7043 13.8147 21.7043C13.6159 22.637 13.1636 23.3895 12.4068 23.9459C11.8263 24.3711 11.1736 24.613 10.444 24.6335C8.61433 24.6825 7.56078 23.8668 6.70608 21.7549C5.96363 21.7549 5.21957 21.668 4.50438 21.7739C3.2969 21.9541 2.46144 22.9215 2.42776 24.1308C2.38447 25.6421 2.41654 27.1549 2.41814 28.6661C2.41814 28.7024 2.43899 28.7404 2.45503 28.791H2.45663ZM4.76416 7.8599C4.23659 8.62499 3.9255 9.41222 3.76835 10.2595C3.69458 10.6579 3.47169 10.8555 3.06759 10.8808C2.89601 10.8918 2.71801 10.895 2.55445 10.9408C1.69493 11.1779 1.12727 11.9889 1.20745 12.8488C1.29244 13.7578 2.02206 14.4343 2.99543 14.5086C3.57111 14.5529 3.6561 14.6288 3.77476 15.1979C4.41298 18.2614 7.14225 20.4524 10.2949 20.4318C13.4475 20.4113 16.1351 18.2124 16.7364 15.1647C16.8374 14.6557 16.9609 14.5513 17.5125 14.5086C18.069 14.4644 18.5516 14.2652 18.898 13.8226C19.3646 13.2298 19.448 12.5706 19.1193 11.8988C18.797 11.2428 18.2421 10.8855 17.4901 10.8839C14.9292 10.8792 12.3667 10.8981 9.80578 10.8697C9.17397 10.8618 8.52292 10.7796 7.91998 10.601C6.47998 10.1773 5.46171 9.22569 4.76095 7.8599H4.76416ZM2.75008 9.26046C2.81904 9.07393 2.85431 8.97909 2.88959 8.88266C3.24558 7.93893 3.73628 7.06792 4.44505 6.33919C4.60541 6.1732 4.89405 6.042 5.12176 6.04516C5.42964 6.0499 5.5435 6.33286 5.61886 6.62531C5.97165 7.99426 6.81031 8.98225 8.17174 9.42328C8.81317 9.63195 9.53157 9.66989 10.2163 9.67779C12.4164 9.70308 14.6165 9.67779 16.8166 9.67305C17.2367 9.67305 17.6584 9.67305 18.1058 9.67305C18.1058 9.07551 18.1139 8.48746 18.1058 7.89783C18.0577 5.04295 16.2088 2.53267 13.4747 1.57156C12.1309 1.09891 10.7567 1.16688 9.368 1.24908C7.26573 1.37396 5.66376 2.28133 4.57494 4.05971C4.3745 4.38693 4.1083 4.49916 3.72986 4.37112C3.27926 4.21936 2.82224 4.08816 2.32995 3.9364C2.3075 5.71794 2.38928 7.44889 2.75329 9.25888L2.75008 9.26046ZM29.4174 10.0066C28.513 11.3297 27.1355 11.9889 25.3796 11.9288C24.6195 11.9019 23.8594 11.9178 23.0977 11.9257C22.2928 11.9351 21.6417 12.4821 21.5279 13.2298C21.3787 14.2051 22.0346 14.9892 23.0865 15.0556C23.505 15.0809 23.7263 15.2627 23.7873 15.661C23.8033 15.7638 23.8354 15.865 23.8594 15.9677C24.5442 18.9143 27.6727 20.9013 30.6602 20.239C33.1281 19.692 34.6675 18.1776 35.2544 15.7417C35.3859 15.1963 35.4725 15.1188 36.0546 15.0588C37.0055 14.9623 37.61 14.2763 37.5571 13.3547C37.5106 12.5406 36.8066 11.9304 35.899 11.9257C35.0187 11.9209 34.1383 11.9257 33.2579 11.9225C32.3359 11.9209 31.494 11.6585 30.758 11.1163C30.2913 10.7717 29.8632 10.3797 29.419 10.0082L29.4174 10.0066ZM32.8715 21.9968C32.4353 24.1008 31.3609 25.1473 29.6307 25.201C28.885 25.2247 28.2115 25.0161 27.6102 24.5829C26.7378 23.9538 26.3386 23.0701 26.2439 22.0284C25.6891 22.0284 25.1679 22.0015 24.6516 22.0331C23.3431 22.1122 22.3473 23.1587 22.3393 24.4502C22.3312 25.6326 22.3377 26.815 22.3377 27.9974C22.3377 28.2567 22.3377 28.5159 22.3377 28.7894H36.7441C36.7521 28.7104 36.7649 28.6471 36.7649 28.5855C36.7649 27.1802 36.7778 25.7733 36.7569 24.368C36.7409 23.2409 35.9359 22.2829 34.8038 22.1011C34.1672 21.9984 33.5097 22.0284 32.8715 21.9984V21.9968ZM39.7941 21.6111C39.7941 21.4704 39.7941 21.355 39.7941 21.2396C39.7909 20.2674 39.8454 19.2905 39.7684 18.3246C39.677 17.177 39.058 16.3107 38.0221 15.7575C37.9211 15.7037 37.7656 15.6642 37.6661 15.7006C37.2717 15.846 36.8002 15.9392 36.526 16.2143C36.247 16.4957 36.1925 16.981 35.9968 17.3556C35.6457 18.0275 35.7274 18.7104 35.9375 19.3806C36.4298 20.9582 37.8586 21.785 39.7925 21.6095L39.7941 21.6111ZM19.2428 21.6395C19.5362 21.6395 19.7463 21.6427 19.9564 21.6395C21.8967 21.6079 23.2661 20.2232 23.311 18.3136C23.3238 17.7477 22.9695 17.3319 22.8636 16.8276C22.7754 16.4072 22.599 16.1289 22.1228 16.0641C21.9111 16.0357 21.7267 15.8523 21.5166 15.778C21.3771 15.729 21.1815 15.6911 21.0644 15.7496C20.1889 16.1922 19.5234 16.8861 19.4047 17.8393C19.2492 19.0787 19.2893 20.3417 19.2428 21.6395ZM18.0786 21.3977C18.0786 21.2475 18.0786 21.1226 18.0786 20.9977C18.0786 20.1694 18.0786 19.3411 18.0834 18.5143C18.0898 17.5469 18.3913 16.6664 19.0215 15.9361C19.4448 15.4429 19.974 15.0382 20.4952 14.5561C20.4487 14.4012 20.3765 14.1577 20.3011 13.9048C19.5074 15.0271 19.0552 15.4113 18.1908 15.6025C17.9439 15.6579 17.8413 15.7543 17.7739 15.9851C17.2592 17.784 16.2136 19.2162 14.6534 20.2801C14.5668 20.3386 14.4882 20.4081 14.3599 20.5093C16.7749 20.5235 16.6482 20.5931 18.077 21.4008L18.0786 21.3977ZM27.4931 21.2507C27.3809 22.275 27.5444 23.1666 28.4921 23.7404C29.1929 24.164 30.1262 24.1024 30.7836 23.6108C31.4828 23.0891 31.7875 22.1659 31.555 21.2475C30.2096 21.649 28.8562 21.6316 27.4931 21.2507ZM12.6184 21.2586C11.0453 21.7344 9.49949 21.7186 7.95205 21.2839C7.89593 22.3667 8.94626 23.3989 10.0992 23.4464C11.4574 23.5033 12.5671 22.5627 12.6184 21.2586ZM26.2311 20.8049C25.6073 20.3417 25.0012 19.8928 24.4207 19.4628C24.1914 19.9655 23.9637 20.4682 23.7584 20.9187C24.5602 20.8823 25.386 20.8444 26.2311 20.8049ZM35.3137 20.9361C35.094 20.454 34.8631 19.9465 34.6418 19.4628C34.0533 19.9023 33.4536 20.348 32.7945 20.8397C33.2852 20.8397 33.6957 20.827 34.1062 20.8428C34.5151 20.8586 34.9224 20.9045 35.3153 20.9361H35.3137Z" fill="#13AB7B"/>
</svg>
