<svg width="51" height="57" viewBox="0 0 51 57" fill="none" xmlns="http://www.w3.org/2000/svg">
<path d="M17.4434 33.7286C16.5564 33.9936 15.7219 34.2302 14.8961 34.4996C14.7825 34.5368 14.6952 34.7099 14.6405 34.8413C14.6012 34.9333 14.6471 35.0581 14.6296 35.1654C14.4811 36.127 14.6864 36.7271 15.77 37.1104C17.155 37.6011 17.8497 38.8408 17.983 40.2996C18.2189 42.8557 18.398 45.4183 18.5859 47.9766C18.6755 49.1857 17.9327 50.1056 16.7356 50.2655C16.3249 50.3203 15.8989 50.3181 15.486 50.2809C14.9639 50.2327 14.682 49.88 14.7104 49.4069C14.7367 48.9667 15.0491 48.6885 15.5493 48.66C16.9759 48.579 16.9933 48.5768 16.8907 47.1728C16.7246 44.9211 16.5455 42.6695 16.3489 40.4222C16.244 39.2197 15.2479 38.3392 13.9852 38.2779C12.6263 38.2122 11.5209 38.9635 11.3615 40.2141C11.1474 41.8919 11.0513 43.585 10.9071 45.2694C10.8372 46.0864 10.7782 46.9034 10.7083 47.7182C10.6384 48.5264 10.7498 48.6556 11.545 48.66C11.7809 48.66 12.019 48.6491 12.2528 48.6754C12.6744 48.7235 12.9628 49.0214 12.9278 49.3982C12.9016 49.6829 12.67 50.0837 12.4232 50.1932C10.776 50.9314 8.94968 49.7201 9.06109 47.9394C9.22275 45.3417 9.43466 42.7461 9.69681 40.1572C9.87157 38.4465 10.9114 37.3514 12.5127 36.8257C12.9235 36.6921 13.0108 36.5103 12.9868 36.1423C12.965 35.8182 12.9824 35.4896 12.9824 35.0822C12.4691 35.2355 12.0081 35.3691 11.5493 35.5071C10.0747 35.954 8.6067 36.4249 7.12554 36.8432C5.87377 37.1959 5.22276 38.0172 5.01959 39.2701C4.73341 41.0465 4.42757 42.8206 4.12609 44.5948C4.02779 45.1774 3.65204 45.5235 3.19764 45.4709C2.69956 45.414 2.40245 45.0044 2.50513 44.3736C2.83063 42.365 3.14084 40.3499 3.55592 38.3589C3.8836 36.7841 4.93439 35.7984 6.45924 35.3297C8.45159 34.7164 10.4439 34.1053 12.445 33.5227C12.8601 33.4022 13.037 33.2401 13.1222 32.7758C13.6138 30.0707 15.1321 28.1586 17.6684 27.0766C17.8148 27.0131 17.9589 26.9452 18.0485 26.9035C17.4215 25.9091 16.7246 24.9695 16.2113 23.9378C15.7219 22.9566 15.4073 21.8855 15.0534 20.8407C14.9573 20.5582 14.8656 20.4377 14.5488 20.4136C12.8273 20.28 12.0037 19.3491 11.995 17.5947C11.9906 16.7339 11.9076 15.7898 12.6285 15.2006C13.2883 14.6618 13.2883 14.042 13.2839 13.3279C13.2708 10.9405 13.2468 8.55301 13.3014 6.16774C13.3822 2.8275 16.2069 0.0457899 19.5406 0.0216963C23.6673 -0.00896819 27.794 -0.00677786 31.9207 0.0216963C35.2849 0.0435996 38.0769 2.81655 38.1905 6.19184C38.2079 6.70218 38.2145 7.21253 38.1948 7.72287C38.1773 8.23541 37.8912 8.53548 37.4433 8.55301C36.9343 8.57272 36.6569 8.29017 36.5935 7.81706C36.5455 7.45784 36.5651 7.08987 36.5629 6.72628C36.5389 3.69487 34.5094 1.66006 31.4903 1.65568C27.6542 1.6513 23.818 1.6513 19.9819 1.65568C16.9912 1.66006 14.9442 3.6883 14.9245 6.68028C14.9092 9.30429 14.9202 11.9283 14.9224 14.5523C14.9224 14.6772 14.9333 14.8042 14.9398 14.9356C15.4008 15.0889 15.8421 15.2379 16.3358 15.4021C16.3445 15.2225 16.362 15.0539 16.362 14.883C16.362 12.9687 16.3598 11.0565 16.362 9.1422C16.3664 6.96502 17.7186 5.5895 19.8792 5.55883C20.3511 5.55226 20.8251 5.58074 21.297 5.55226C22.4526 5.48436 23.4619 5.78444 24.3773 6.53353C25.2162 7.2191 26.2953 7.19939 27.143 6.50944C28.0102 5.80415 28.9649 5.49532 30.066 5.55445C30.6274 5.58293 31.1932 5.54569 31.7568 5.56541C33.7623 5.63331 35.1036 7.01102 35.1167 9.02831C35.1298 10.9405 35.1189 12.8548 35.1189 14.7691C35.1189 14.9685 35.1189 15.1678 35.1189 15.4087C35.6083 15.2488 36.0627 15.0999 36.5586 14.9356C36.5586 13.9741 36.5564 13.0103 36.5607 12.0488C36.5607 11.8494 36.576 11.6479 36.6154 11.4552C36.7137 10.9886 37.0217 10.7784 37.487 10.8266C37.9305 10.8726 38.1773 11.1463 38.1861 11.5888C38.2036 12.4452 38.1752 13.3016 38.2145 14.158C38.2254 14.3902 38.363 14.6728 38.5356 14.8327C38.9944 15.2554 39.3527 15.7241 39.4007 16.3549C39.4488 16.9879 39.5056 17.6319 39.4357 18.2583C39.2959 19.5265 38.4045 20.3107 37.0217 20.4027C36.6044 20.4311 36.4887 20.5735 36.4013 20.959C35.9425 23.0004 34.9835 24.8008 33.6793 26.4239C33.5875 26.5378 33.4914 26.6473 33.404 26.7612C33.3843 26.7875 33.3865 26.8291 33.404 26.7502C34.2866 27.3197 35.2019 27.7884 35.9665 28.4346C37.3319 29.5867 38.1227 31.1133 38.3696 32.8919C38.4176 33.2401 38.5531 33.3869 38.8742 33.4811C40.8207 34.0549 42.7563 34.6704 44.7093 35.2246C46.671 35.7831 47.7546 37.0535 48.0867 39.0576C48.86 43.7208 49.6639 48.3775 50.4591 53.0363C50.7256 54.6002 49.6268 55.9626 48.043 55.9976C47.3526 56.0129 46.6623 56.002 45.9698 56.002C31.8617 56.002 17.7558 56.002 3.64767 56.002C1.79732 56.002 0.722499 54.7031 1.048 52.883C1.1048 52.561 1.14413 52.2346 1.19874 51.9127C1.38225 50.8197 1.57012 49.7267 1.75581 48.6337C1.7711 48.5439 1.79732 48.4563 1.82353 48.3687C1.9699 47.8584 2.32817 47.6087 2.78475 47.6985C3.22823 47.7839 3.49256 48.165 3.40955 48.6929C3.17798 50.1648 2.92894 51.6345 2.67334 53.1042C2.51823 53.9913 2.81534 54.3614 3.73068 54.3614C6.82188 54.3636 9.9109 54.3614 13.0021 54.3614C24.5105 54.3614 36.0168 54.3614 47.5252 54.3614C48.718 54.3614 48.9539 54.1008 48.7595 52.9377C47.9905 48.3665 47.2128 43.7975 46.4417 39.2263C46.2341 37.9931 45.5722 37.2024 44.3488 36.8498C42.4176 36.2935 40.5018 35.6867 38.4897 35.0756C38.4897 35.8948 38.4897 36.6505 38.4897 37.4039C38.4897 37.531 38.5028 37.6602 38.4876 37.7873C38.3587 38.7992 38.5269 39.4716 39.6847 39.9338C41.3843 40.615 42.1883 42.7023 41.7666 44.5335C41.3494 46.3492 39.7109 47.7248 37.8781 47.8014C35.96 47.8825 34.2473 46.7282 33.6705 44.9693C32.9037 42.6323 34.0943 40.282 36.4122 39.5176C36.5848 39.4607 36.8229 39.2416 36.8273 39.0949C36.8578 37.6033 36.8469 36.1095 36.8469 34.585C35.9119 34.3024 34.9966 34.0243 34.031 33.733C33.7994 34.263 33.5679 34.7515 33.3712 35.2531C31.1473 40.9742 28.9278 46.6975 26.7082 52.4208C26.5247 52.8939 26.4002 53.4568 25.7557 53.4678C25.0763 53.4809 24.9518 52.8961 24.7596 52.4055C22.4002 46.3668 20.0409 40.328 17.6793 34.2893C17.6138 34.1228 17.5351 33.9586 17.4346 33.7352L17.4434 33.7286ZM34.9398 17.6231C33.7317 17.4654 33.4827 17.1763 33.4805 15.9935C33.4805 13.6784 33.4848 11.3654 33.4805 9.05021C33.4805 8.13246 33.0195 7.32862 32.2527 7.287C30.7847 7.21034 29.2795 6.8577 27.9207 7.94629C26.6776 8.94069 24.9016 8.93412 23.6432 8.00105C22.7978 7.37242 21.9262 7.10739 20.906 7.20377C20.6001 7.23224 20.2877 7.20596 19.9797 7.20815C18.6362 7.21472 18.007 7.83896 18.0048 9.17287C18.0026 11.4333 18.0048 13.6915 18.0048 15.9519C18.0048 17.1785 17.7754 17.4501 16.5018 17.6341C16.5521 18.6 16.4712 19.6076 16.6809 20.5494C17.2686 23.1953 18.6733 25.3791 20.8055 27.0503C23.427 29.1048 27.0359 29.4049 29.6836 27.6986C33.3035 25.3681 35.1997 22.0695 34.9398 17.6231ZM31.0075 32.9926C30.7694 32.3728 30.4767 31.8208 30.3521 31.2316C30.2254 30.6358 30.2669 30.0072 30.2298 29.3217C27.2303 30.7979 24.2462 30.776 21.2074 29.3129C21.2533 30.6534 21.2183 31.8843 20.3838 32.9269C22.1184 34.228 23.8005 35.494 25.4936 36.7447C25.6006 36.8235 25.8584 36.8367 25.9589 36.7622C27.6673 35.5027 29.3603 34.2258 31.0031 32.9926H31.0075ZM37.6683 46.1565C39.0883 46.1521 40.2636 44.9606 40.2462 43.5434C40.2309 42.135 39.0796 40.9961 37.6683 40.9895C36.2331 40.9829 35.0687 42.1372 35.0687 43.5697C35.0687 44.9978 36.2352 46.1609 37.6683 46.1565ZM25.0829 42.3869C24.895 43.4295 24.7552 44.4743 24.5083 45.4928C24.327 46.2375 24.3947 46.9012 24.7006 47.5933C25.0698 48.43 25.3625 49.2996 25.7448 50.2962C26.0878 49.3916 26.3347 48.6162 26.6711 47.8846C27.0665 47.0282 27.1888 46.1915 26.9485 45.2606C26.706 44.3188 26.5728 43.3463 26.3915 42.3869H25.0829ZM36.6525 32.7867C36.4078 30.592 34.2363 28.5331 31.9687 28.2878C31.9687 29.2099 31.9534 30.1321 31.9797 31.052C31.9862 31.2557 32.0867 31.4945 32.2243 31.6434C32.3554 31.788 32.5826 31.8887 32.7814 31.9194C33.2555 31.9917 33.7535 31.9544 34.2145 32.0639C35.0206 32.2589 35.8071 32.5305 36.6525 32.7846V32.7867ZM19.5297 28.2812C16.9191 28.5529 14.9005 31.1309 14.883 32.7692C15.7394 32.513 16.5826 32.2501 17.4346 32.0136C17.7274 31.9325 18.042 31.858 18.3391 31.88C19.1474 31.9391 19.4576 31.7595 19.5166 30.9359C19.5777 30.0707 19.5297 29.1968 19.5297 28.2812ZM19.7022 34.4755C19.6738 34.4996 19.6454 34.5259 19.6149 34.55C20.2003 36.0021 20.788 37.4543 21.3822 38.9284C22.291 38.5407 23.1473 38.1771 24.0976 37.7719C22.5881 36.6395 21.1441 35.5575 19.7001 34.4755H19.7022ZM27.3789 37.7719C28.3423 38.1793 29.2009 38.5451 30.1009 38.9262C30.7017 37.4368 31.2871 35.9868 31.8704 34.5346C31.842 34.5127 31.8158 34.493 31.7874 34.4711C30.3478 35.5487 28.9059 36.6286 27.3767 37.7719H27.3789ZM27.5537 39.649C25.664 38.7773 25.3232 38.7839 23.9425 39.7016C24.5914 41.1932 26.9682 41.1297 27.5537 39.649ZM13.6684 16.4688C13.6684 17.058 13.6269 17.564 13.6793 18.0634C13.7296 18.5453 14.1556 18.83 14.6231 18.749C14.7257 18.7314 14.883 18.5891 14.8874 18.4993C14.9114 17.8882 14.9005 17.2771 14.9005 16.6463C14.4789 16.5849 14.125 16.5345 13.6684 16.4688ZM37.8191 16.4645C37.3494 16.5367 36.9824 16.5959 36.5848 16.6572C36.5848 17.2114 36.5826 17.7195 36.5848 18.2277C36.5891 18.7665 36.7355 18.9067 37.2314 18.6964C37.4739 18.5935 37.7492 18.3043 37.7929 18.0612C37.8802 17.5728 37.8191 17.058 37.8191 16.4645ZM23.1299 43.4317C23.1605 43.423 23.1932 43.4142 23.2238 43.4032C23.3025 42.9586 23.3942 42.5184 23.4532 42.0715C23.4728 41.927 23.4466 41.7364 23.3636 41.6269C23.0687 41.2392 22.7454 40.8734 22.4177 40.5098C22.3587 40.4441 22.2407 40.4332 22.149 40.3959C22.1228 40.5054 22.0485 40.6325 22.0813 40.7179C22.4199 41.6247 22.7781 42.5271 23.1299 43.4295V43.4317ZM28.2702 43.4032C28.3008 43.4142 28.3292 43.423 28.3598 43.4339C28.7115 42.5315 29.0676 41.6313 29.4084 40.7223C29.4412 40.6347 29.3647 40.5076 29.3407 40.4003C29.2489 40.4354 29.1375 40.4507 29.0698 40.512C28.2855 41.2436 27.7066 42.0452 28.2331 43.193C28.2615 43.2565 28.2593 43.3332 28.2724 43.4032H28.2702Z" fill="white"/>
</svg>
