<svg width="52" height="53" viewBox="0 0 52 53" fill="none" xmlns="http://www.w3.org/2000/svg">
<path d="M9.44107 35.5232C11.6598 35.5232 13.8785 35.5297 16.0972 35.521C17.2792 35.5167 18.1273 36.0306 18.6521 37.0889C19.2204 38.2317 19.7821 39.3811 20.3785 40.5087C20.5303 40.795 20.7711 41.0595 21.0313 41.2547C21.6234 41.6949 22.248 42.0918 22.8683 42.493C23.2327 42.7293 23.4062 43.0394 23.4019 43.4818C23.391 45.1408 23.4019 46.7997 23.3954 48.4587C23.391 49.4974 22.6623 50.2282 21.6321 50.2477C21.4152 50.2521 21.1983 50.2608 20.9836 50.2477C20.2939 50.1979 19.7929 50.2868 19.3071 50.9851C18.2444 52.5117 15.9866 52.2645 15.0779 50.6251C14.9282 50.354 14.7851 50.2412 14.4684 50.2434C12.9177 50.2608 11.367 50.2586 9.81628 50.2434C9.51048 50.2412 9.35215 50.328 9.19816 50.6121C8.72753 51.4882 7.9641 51.9652 6.96426 51.9761C5.94057 51.9869 5.16196 51.5012 4.67831 50.6099C4.52215 50.3236 4.36166 50.2412 4.05802 50.2456C3.04735 50.2608 2.03884 50.2564 1.02816 50.2499C0.327626 50.2456 0.00880752 49.929 0.00880752 49.222C0.00663869 45.5246 0.00230102 41.8294 0.00880752 38.132C0.0131452 36.6639 1.14962 35.5362 2.62225 35.5297C4.89519 35.521 7.16813 35.5275 9.43891 35.5275L9.44107 35.5232ZM12.0957 48.5151V37.258H11.5752C8.69066 37.258 5.80611 37.258 2.91938 37.258C2.01498 37.258 1.74171 37.5378 1.74171 38.4616C1.74171 41.6169 1.74171 44.7721 1.74171 47.9274C1.74171 48.116 1.74171 48.3047 1.74171 48.5151C2.61792 48.5151 3.41171 48.5302 4.20117 48.502C4.34865 48.4977 4.54601 48.3459 4.62409 48.2093C5.14244 47.3093 5.8972 46.7889 6.94257 46.7911C7.98795 46.7954 8.74488 47.3137 9.25239 48.2223C9.32396 48.3502 9.49963 48.4977 9.62976 48.502C10.4387 48.5281 11.2477 48.5151 12.0914 48.5151H12.0957ZM13.8937 48.591C14.3058 48.3633 14.7591 48.7796 15.0432 48.2136C15.5073 47.2855 16.3011 46.7845 17.3486 46.7911C18.394 46.7997 19.1531 47.3158 19.652 48.2331C19.7127 48.3437 19.832 48.4955 19.9296 48.4999C20.4978 48.5259 21.0682 48.5129 21.6191 48.5129C21.6429 48.4045 21.6581 48.3698 21.6581 48.3372C21.6603 47.3636 21.5714 46.379 21.6863 45.4184C21.8338 44.1888 21.4304 43.3972 20.3113 42.8594C19.8471 42.6361 19.4394 42.4366 18.908 42.4474C17.4115 42.4778 15.9129 42.4561 14.4164 42.4583C14.2429 42.4583 14.0694 42.4734 13.8937 42.4821V48.5931V48.591ZM13.8894 40.6887H18.509C17.9841 39.6435 17.5026 38.6438 16.9734 37.6722C16.8715 37.4836 16.5831 37.2971 16.3705 37.2862C15.5507 37.2407 14.7287 37.2689 13.8872 37.2689V40.6909L13.8894 40.6887ZM7.79927 49.3955C7.80794 48.9336 7.41321 48.5281 6.94908 48.5216C6.48495 48.5151 6.08372 48.9054 6.07504 49.3695C6.06853 49.8335 6.45893 50.2369 6.92306 50.2434C7.38502 50.2499 7.79059 49.8574 7.7971 49.3933L7.79927 49.3955ZM17.3291 48.5216C16.865 48.5216 16.4681 48.9206 16.4703 49.3847C16.4703 49.8487 16.8715 50.2456 17.3335 50.2434C17.7976 50.2434 18.1945 49.8422 18.1923 49.3781C18.1923 48.9141 17.7911 48.5172 17.327 48.5194L17.3291 48.5216Z" fill="white"/>
<path d="M19.0664 8.60927C19.0664 10.8321 19.0772 13.0331 19.0621 15.2321C19.0512 16.7262 17.9017 17.9883 16.4117 18.1878C14.9955 18.3765 13.5597 17.4614 13.1433 16.08C13.0566 15.7916 13.0197 15.4793 13.0067 15.1757C12.985 14.5988 13.0153 14.0198 12.9958 13.4452C12.9698 12.6948 12.3864 12.131 11.6815 12.1419C10.9962 12.1527 10.4366 12.7079 10.4106 13.4322C10.3889 14.009 10.4106 14.5858 10.4041 15.1627C10.3867 16.8563 9.05288 18.1965 7.38505 18.2008C5.69119 18.2052 4.34868 16.8607 4.34 15.1367C4.3335 13.5514 4.34 11.964 4.34 10.3441C3.14931 10.0904 2.12996 9.55911 1.32749 8.65481C0.492488 7.71583 0.0370325 6.61636 0.0153441 5.36293C-0.0106819 3.92084 0.00449997 2.47658 0.00883764 1.03448C0.0110065 0.331865 0.329825 0.0195919 1.0347 0.0130862C1.50317 0.00874911 1.97163 0.0152548 2.44227 0.0195919C2.4748 0.0195919 2.50734 0.039109 2.57457 0.0607946V1.73059H1.74174C1.74174 2.49826 1.72872 3.23124 1.74608 3.96421C1.76126 4.62996 1.72872 5.30872 1.85235 5.95495C2.169 7.61173 3.70236 8.75457 5.39406 8.66999C7.07707 8.58542 8.52802 7.24525 8.64297 5.53859C8.72756 4.30251 8.66032 3.05558 8.66032 1.7783C8.37838 1.75878 8.11811 1.74143 7.83183 1.72191V0.0239291C8.44995 0.0239291 9.08758 -0.0498021 9.69052 0.0564575C9.95946 0.104166 10.3585 0.509687 10.365 0.759072C10.4084 2.48742 10.5168 4.23745 10.3108 5.94411C10.0202 8.35555 8.45212 9.74777 6.0729 10.3593C6.0729 11.3872 6.0729 12.4476 6.0729 13.5081C6.0729 14.0502 6.06206 14.5902 6.07724 15.1323C6.09893 15.8891 6.65849 16.4595 7.36336 16.4638C8.06823 16.4682 8.6408 15.9043 8.66466 15.1475C8.68201 14.588 8.66466 14.0285 8.67117 13.469C8.68418 11.7429 10.0202 10.3983 11.714 10.4027C13.4036 10.407 14.7222 11.7559 14.7352 13.4929C14.7396 14.0524 14.7201 14.6119 14.7417 15.1713C14.7678 15.8956 15.3273 16.4508 16.0105 16.4638C16.6937 16.4768 17.3118 15.9325 17.3205 15.2169C17.3422 13.018 17.3292 10.819 17.3292 8.63096C14.7461 7.65294 13.5077 5.80966 13.9371 3.61724C14.3644 1.42048 16.1385 -0.0281165 18.342 0.0130862C20.4458 0.054289 22.2351 1.67637 22.5062 3.84277C22.7404 5.71207 21.6777 7.92618 19.0664 8.60927ZM18.1924 1.74577C16.7869 1.74794 15.6114 2.91679 15.6028 4.32202C15.5919 5.74894 16.7804 6.94382 18.2054 6.93948C19.6086 6.93731 20.7863 5.76629 20.7971 4.36323C20.808 2.93631 19.6216 1.7436 18.1945 1.74577H18.1924Z" fill="white"/>
<path d="M40.0716 40.4721C37.2738 37.9826 37.8269 34.5064 39.653 32.7108C41.6787 30.7201 44.8669 30.6897 46.9186 32.6436C48.8099 34.4435 49.389 37.9631 46.6584 40.4006C47.4544 40.947 48.3262 41.4285 49.0593 42.0703C50.9787 43.7466 51.9308 45.9065 51.9807 48.4546C51.9959 49.283 51.9872 50.1136 51.9807 50.9441C51.9764 51.6532 51.6641 51.9785 50.9679 51.9807C45.8624 51.985 40.757 51.9829 35.6515 51.9807C35.0681 51.9807 34.6691 51.6988 34.6712 51.1957C34.6777 49.5953 34.4956 47.9797 34.9185 46.4053C35.6299 43.7618 37.2348 41.8513 39.6986 40.6586C39.8114 40.6044 39.922 40.548 40.0716 40.4743V40.4721ZM36.428 50.2068H50.2912C50.2435 49.2678 50.2868 48.357 50.1394 47.4766C49.6557 44.5664 47.9358 42.671 45.1294 41.8405C42.4855 41.0576 39.601 42.0747 37.905 44.1999C36.4909 45.9738 36.248 48.0144 36.4258 50.2068H36.428ZM46.7842 36.3865C46.7842 34.4847 45.2096 32.919 43.3054 32.9255C41.4272 32.932 39.8678 34.4869 39.8591 36.3627C39.8482 38.2645 41.412 39.8454 43.3097 39.8497C45.2118 39.8541 46.7864 38.284 46.7842 36.3844V36.3865Z" fill="white"/>
<path d="M38.1454 19.9443C35.7532 19.7947 33.7188 18.6063 32.6236 16.1277C31.5305 13.6555 31.9144 11.2939 33.7232 9.29451C35.2457 7.60953 36.9135 6.05684 38.5185 4.4456C39.373 3.58902 40.2123 2.71942 41.0864 1.88452C44.7755 -1.64156 50.6271 0.0434126 51.8178 4.98774C52.2754 6.8809 51.8568 8.63526 50.7073 10.2031C50.4427 10.5653 50.1261 10.8927 49.8094 11.2115C47.5799 13.4495 45.3416 15.6744 43.1142 17.9146C41.8194 19.2157 40.273 19.9118 38.1476 19.9443H38.1454ZM39.4532 6.03732C41.6264 8.21239 43.7866 10.3745 46.0031 12.5929C47.107 11.4457 48.3433 10.3484 49.3475 9.06898C50.844 7.16281 50.4666 4.51499 48.6404 2.88857C46.9422 1.37708 44.2442 1.35539 42.5655 2.90375C41.4811 3.90563 40.4813 4.99641 39.4532 6.03732ZM38.0565 7.36882C37.0784 8.34901 36.0872 9.32053 35.1242 10.3181C33.4304 12.0724 33.3436 14.7701 34.903 16.5549C36.5405 18.4307 39.2494 18.8275 41.1601 17.2618C42.4007 16.2469 43.3918 14.9284 44.4654 13.7791C42.4224 11.7341 40.26 9.57425 38.0565 7.37099V7.36882Z" fill="white"/>
<path d="M49.0264 21.8199C48.3931 21.9305 47.8704 22.0238 47.3174 22.1213C47.1829 21.5272 47.0593 20.9872 46.9248 20.393C47.4583 20.2434 47.9897 20.0959 48.5905 19.9268C48.7336 20.5513 48.8724 21.1498 49.0264 21.8199Z" fill="white"/>
<path d="M47.6797 24.7869C48.2154 24.7522 48.7489 24.7153 49.3345 24.6763V26.5803H47.6797V24.7869Z" fill="white"/>
<path d="M49.1263 29.497C49.0049 30.1476 48.8921 30.7418 48.7706 31.3924C48.1872 31.2536 47.6602 31.13 47.0854 30.9934C47.1982 30.3948 47.3045 29.8397 47.4173 29.2368C47.9768 29.3214 48.5017 29.4016 49.1263 29.497Z" fill="white"/>
<path d="M46.8731 15.4292C47.1507 16.0277 47.4088 16.5894 47.6842 17.1879C47.1312 17.4113 46.6215 17.6173 46.0793 17.8385C45.8321 17.305 45.6022 16.8062 45.3311 16.2207C45.8299 15.9648 46.3244 15.7111 46.8731 15.4292Z" fill="white"/>
<path d="M4.45906 23.7457C4.41352 24.3008 4.37231 24.7844 4.3311 25.2918H2.60254C2.64592 24.7128 2.68495 24.1859 2.72833 23.583C3.30524 23.6372 3.84962 23.6871 4.45906 23.7435V23.7457Z" fill="white"/>
<path d="M4.40694 27.7163C4.4655 28.2888 4.51539 28.7789 4.56961 29.3059C3.9992 29.3948 3.47651 29.4772 2.87575 29.5726C2.80851 29.0066 2.74345 28.4688 2.67188 27.879C3.26397 27.8247 3.80834 27.7749 4.40694 27.7185V27.7163Z" fill="white"/>
<path d="M3.91468 33.7427C3.73466 33.168 3.57634 32.6627 3.40283 32.1032C3.97757 31.9428 4.50243 31.7953 5.06416 31.6392C5.22249 32.1336 5.3743 32.6085 5.54781 33.1506C5.02512 33.3393 4.51328 33.5258 3.91468 33.7427Z" fill="white"/>
<path d="M4.8213 21.38C4.2574 21.2629 3.7217 21.1501 3.12744 21.0265C3.27492 20.454 3.41156 19.9292 3.55904 19.3589C4.14463 19.5324 4.66948 19.6863 5.2182 19.8512C5.08156 20.3759 4.95794 20.853 4.8213 21.3822V21.38Z" fill="white"/>
<path d="M23.2197 4.50608C23.1481 3.93141 23.0852 3.41746 23.0093 2.80592C23.545 2.75171 24.0633 2.69966 24.6533 2.64111V4.3738C24.2303 4.41283 23.7597 4.4562 23.2197 4.50391V4.50608Z" fill="white"/>
<path d="M32.7819 3.60402C32.6149 4.16568 32.463 4.67746 32.2939 5.24779C31.8015 5.12419 31.3418 5.00708 30.8169 4.8748C30.9449 4.30447 31.0641 3.77317 31.1964 3.18115C31.7495 3.32861 32.244 3.4609 32.784 3.60402H32.7819Z" fill="white"/>
<path d="M27.1104 4.372V2.63281C27.6634 2.67618 28.1601 2.71522 28.737 2.76293C28.6806 3.32458 28.6285 3.84938 28.5656 4.46525C28.0711 4.43489 27.5853 4.40453 27.1104 4.37417V4.372Z" fill="white"/>
<path d="M35.1133 4.44531C35.6208 4.67952 36.0892 4.89637 36.6076 5.13708C36.3452 5.65537 36.1001 6.14547 35.829 6.6811C35.3648 6.46858 34.9311 6.27124 34.4409 6.04788C34.6643 5.51658 34.8834 4.9983 35.1133 4.44748V4.44531Z" fill="white"/>
<path d="M24.8246 47.6631H26.2561V49.3394H24.7271C24.7596 48.7647 24.7899 48.2356 24.8246 47.6631Z" fill="white"/>
<path d="M33.9554 48.0076C33.4219 48.1746 32.9664 48.3155 32.4633 48.4738C32.2984 47.9057 32.1509 47.3961 31.9883 46.8301C32.4437 46.6761 32.8732 46.5308 33.3568 46.3682C33.552 46.9038 33.7407 47.4156 33.9576 48.0076H33.9554Z" fill="white"/>
<path d="M28.6243 49.2306C28.5615 48.6299 28.5072 48.1138 28.4443 47.5283C28.9258 47.4524 29.3726 47.3808 29.8693 47.3027C29.9712 47.8861 30.0645 48.4239 30.1686 49.0137C29.6329 49.0896 29.1579 49.1547 28.6265 49.2306H28.6243Z" fill="white"/>
<path d="M6.94038 39.021V40.693H8.6364V42.4321H6.96423V44.1475H5.22483V42.4755H3.50928V40.7363H5.18145V39.021H6.94038Z" fill="white"/>
</svg>
