<svg width="34" height="32" viewBox="0 0 34 32" fill="none" xmlns="http://www.w3.org/2000/svg">
<path d="M29.31 26.0645H32.8247C32.8247 25.8524 32.8276 25.6478 32.8247 25.4431C32.8056 24.4583 32.8687 23.4616 32.7469 22.4887C32.496 20.4761 30.798 19.0107 28.7963 18.9707C28.5776 18.9663 28.359 18.9707 28.1095 18.9707C27.8762 20.2373 27.2525 21.2399 26.165 21.9177C25.4048 22.3923 24.5683 22.5881 23.6819 22.5109C21.8079 22.3478 20.3579 20.9744 19.9632 18.944C19.3996 18.9855 18.8258 19.0271 18.164 19.0745C18.2916 19.2273 18.3459 19.3014 18.4091 19.3667C19.4275 20.4257 19.9338 21.6937 19.9353 23.168C19.9353 25.0931 19.9368 27.0167 19.9353 28.9418C19.9324 30.7141 18.6659 31.997 16.9107 31.9985C12.2835 32 7.65784 32 3.03069 31.9985C1.27697 31.9985 0.0134202 30.7141 0.0104851 28.9388C0.00901761 27.1502 0.0383684 25.36 0.00314744 23.5729C-0.046749 21.0827 1.01282 19.2985 3.21853 18.1861C3.21853 18.1743 3.2288 18.1416 3.21853 18.1298C2.55227 17.4119 2.33654 16.5577 2.34681 15.5862C2.37469 13.0204 2.35562 10.4546 2.35562 7.88728C2.35708 3.9644 4.97958 0.797916 8.79225 0.111227C12.0223 -0.47016 15.4197 1.31553 16.8461 4.34556C16.8916 4.44345 16.94 4.53985 17.0134 4.69261C17.0736 4.57841 17.1088 4.51019 17.144 4.44048C18.6732 1.43863 21.1196 -0.0578501 24.4495 0.0311377C28.0508 0.129024 31.2119 3.13681 31.5788 6.75713C31.6595 7.55209 31.6756 8.35891 31.636 9.15683C31.5788 10.3478 30.7467 11.3445 29.5814 11.7241C29.4024 11.782 29.2718 11.8368 29.2336 12.0727C28.9211 13.9948 27.8659 15.3534 26.1166 16.1528C25.8656 16.267 25.7805 16.3915 25.7849 16.6674C25.8011 17.6967 25.873 17.762 26.89 17.7857C27.9114 17.8109 28.9563 17.7545 29.9483 17.9518C32.2729 18.4116 33.9841 20.6214 33.9943 23.0107C34.0031 25.01 34.0002 27.0078 33.9943 29.007C33.9899 30.6845 32.7044 31.9911 31.0505 31.9941C27.9613 32 24.8736 31.997 21.7844 31.9941C21.3573 31.9941 21.0976 31.7553 21.1035 31.3919C21.1093 31.0419 21.3617 30.8194 21.7668 30.809C21.8519 30.8076 21.937 30.809 22.0236 30.809C23.9153 30.809 25.8084 30.809 27.7001 30.809C27.8321 30.809 27.9627 30.809 28.1345 30.809V30.3819C28.1345 28.4449 28.1345 26.508 28.1345 24.571C28.1345 24.485 28.1315 24.3975 28.1345 24.3115C28.155 23.9422 28.4001 23.6945 28.7347 23.7019C29.0546 23.7108 29.2938 23.9496 29.3026 24.304C29.3144 24.7727 29.3055 25.2414 29.3055 25.71C29.3055 25.8257 29.3055 25.9429 29.3055 26.0586L29.31 26.0645ZM5.87038 30.7853H14.0505C14.0607 30.7349 14.071 30.7112 14.071 30.6874C14.0725 28.7386 14.0739 26.7898 14.0739 24.8394C14.0739 24.6422 14.0622 24.4435 14.0798 24.2477C14.1077 23.9273 14.3645 23.6945 14.6698 23.7093C14.9941 23.7256 15.1863 23.9125 15.2406 24.2299C15.2626 24.3619 15.248 24.5013 15.248 24.6363C15.248 25.1109 15.248 25.5869 15.248 26.0541H18.7539C18.7539 24.9625 18.8038 23.8888 18.7437 22.8224C18.6086 20.4286 16.3838 18.6414 14.0534 19.0063C13.437 21.2577 11.9812 22.5183 9.99123 22.5228C7.9763 22.5272 6.51316 21.2725 5.88359 18.9737C5.63997 18.9737 5.38609 18.9663 5.1322 18.9737C3.19505 19.0345 1.48977 20.5146 1.26817 22.459C1.14196 23.5669 1.20506 24.6985 1.18599 25.8198C1.18599 25.8999 1.20653 25.9815 1.21534 26.0541H4.69781C4.69781 25.4816 4.69341 24.9299 4.69781 24.3767C4.70222 23.9674 4.92675 23.7123 5.27309 23.7063C5.61943 23.7004 5.85717 23.957 5.86744 24.3589C5.87331 24.5932 5.86744 24.8276 5.86744 25.0619C5.86744 26.9603 5.86744 28.8587 5.86744 30.7853H5.87038ZM16.4161 11.696C16.4161 10.3641 16.4249 9.03077 16.4117 7.69892C16.4073 7.29402 16.3794 6.8832 16.3002 6.4872C15.6046 3.02409 12.6445 0.864656 9.16794 1.26955C6.07583 1.62847 3.56781 4.40192 3.53405 7.56099C3.50323 10.373 3.52231 13.1865 3.52818 16C3.53112 17.0056 4.30011 17.7694 5.2995 17.7827C5.89826 17.7901 6.49555 17.7842 7.09431 17.7842C8.1392 17.7842 8.20817 17.7056 8.21844 16.6555C8.22138 16.4004 8.1524 16.2744 7.90879 16.1646C6.12867 15.3593 5.01774 13.9844 4.77706 12.0222C4.64351 10.9277 4.68901 9.80645 4.71542 8.69855C4.73303 7.99109 5.29217 7.35335 5.98778 7.20504C6.39869 7.11753 6.83455 7.13385 7.25867 7.12791C8.02473 7.11605 8.58973 6.78234 8.94341 6.09417C9.10631 5.77827 9.23105 5.43566 9.43063 5.14497C9.54804 4.97441 9.78138 4.77864 9.95601 4.78457C10.1512 4.79198 10.3933 4.97589 10.5151 5.15238C10.7294 5.46236 10.8615 5.82869 11.0376 6.16536C11.3208 6.70374 11.7728 7.02409 12.3628 7.10122C12.7238 7.14868 13.0936 7.11901 13.4605 7.12346C14.479 7.13385 15.2377 7.89766 15.2436 8.92843C15.2494 9.73081 15.2685 10.5332 15.2392 11.3341C15.1628 13.4609 14.1943 15.0582 12.3158 16.0163C11.8257 16.267 11.676 16.525 11.72 17.0367C11.767 17.5751 11.9401 17.7827 12.4919 17.7842C13.1758 17.7857 13.8597 17.7872 14.5421 17.7842C15.6765 17.7797 16.4132 17.0323 16.4147 15.8784C16.4176 14.4842 16.4147 13.0901 16.4147 11.696H16.4161ZM18.7598 10.5747C18.7598 9.96514 18.7539 9.4238 18.7598 8.88394C18.7701 8.0697 19.294 7.3667 20.0835 7.19614C20.4827 7.11012 20.9053 7.13236 21.3192 7.12643C22.0852 7.11605 22.6502 6.78234 23.0039 6.09565C23.1727 5.76788 23.3224 5.43121 23.5 5.10937C23.7641 4.62736 24.3012 4.62884 24.5669 5.11086C24.7327 5.41193 24.8794 5.72339 25.0291 6.03188C25.3872 6.77048 25.9728 7.13236 26.7858 7.12495C27.0426 7.12198 27.298 7.12198 27.5548 7.12495C28.5278 7.13978 29.2923 7.90507 29.307 8.8869C29.3144 9.4327 29.307 9.977 29.307 10.5777C30.0246 10.2529 30.4312 9.75454 30.459 9.05153C30.4913 8.25361 30.4957 7.44085 30.3783 6.65479C29.9733 3.92287 27.7778 1.7308 25.0864 1.28883C22.3171 0.834994 19.589 2.23507 18.3005 4.73562C17.5828 6.12977 17.5094 7.61735 17.6107 9.12717C17.6562 9.79755 18.0701 10.2677 18.7583 10.5747H18.7598ZM9.97069 6.7067C9.45118 7.59065 8.74089 8.13644 7.77671 8.27437C7.38048 8.33073 6.97397 8.30255 6.57186 8.30997C6.09638 8.32035 5.87772 8.53244 5.87185 9.00852C5.86598 9.48906 5.8513 9.97107 5.87478 10.4516C5.9056 11.0894 5.89092 11.7434 6.03328 12.3574C6.4706 14.2277 8.28155 15.5165 10.2202 15.4082C12.1089 15.3029 13.7628 13.8183 13.9932 11.9407C14.0945 11.1131 14.0607 10.2677 14.071 9.43121C14.0827 8.38412 13.9991 8.28327 12.9483 8.31738C11.6628 8.35891 10.6736 7.87838 9.97216 6.7067H9.97069ZM24.0327 6.70077C23.519 7.58768 22.8205 8.12903 21.8666 8.26696C21.4469 8.32776 21.0154 8.2981 20.5884 8.31145C20.2024 8.32332 19.9397 8.51909 19.9426 8.87059C19.9485 9.92954 19.8927 11.0004 20.0278 12.0445C20.2743 13.9651 22.1014 15.4334 24.0723 15.4156C26.0432 15.3993 27.8292 13.8984 28.0493 11.9688C28.1653 10.9574 28.1212 9.92658 28.1286 8.9047C28.1315 8.54134 27.885 8.32628 27.5137 8.31293C27.0866 8.29662 26.6552 8.33518 26.2355 8.27586C25.2698 8.13941 24.5566 7.59807 24.0327 6.70077ZM16.7008 18.1402C16.7111 18.1832 16.7214 18.2262 16.7302 18.2677C16.9048 18.2529 17.0853 18.2618 17.2526 18.2173C17.5579 18.1372 17.8485 17.9607 18.1552 17.937C19.1355 17.8584 20.1202 17.8109 21.1049 17.7901C22.2232 17.7664 22.298 17.7011 22.2834 16.5636C22.2804 16.353 22.2026 16.2729 22.0221 16.1913C20.2288 15.3875 19.1531 14.0126 18.8214 12.0489C18.8053 11.9555 18.7437 11.8279 18.6673 11.7938C18.321 11.6337 17.9615 11.5002 17.5887 11.3504C17.5887 12.749 17.5652 14.1416 17.596 15.5328C17.618 16.525 17.417 17.4134 16.6994 18.1387L16.7008 18.1402ZM7.13393 18.9707C7.31297 20.2996 8.60587 21.3526 10.0088 21.3378C11.3722 21.3244 12.6534 20.2477 12.8016 18.9707C12.1515 19.0107 11.5395 18.9336 11.0493 18.4279C10.5504 17.9132 10.5298 17.2681 10.5533 16.6066H9.38954C9.40715 17.2592 9.39248 17.894 8.91406 18.4056C8.42243 18.9292 7.79873 19.0107 7.1354 18.9707H7.13393ZM21.1944 18.9915C21.4483 20.4079 22.7882 21.4312 24.2367 21.3318C25.5413 21.2429 26.8151 20.0994 26.8474 18.9663C26.1944 19.0167 25.5868 18.9232 25.101 18.4145C24.6094 17.8999 24.5918 17.2518 24.6197 16.611H23.4823C23.2343 18.5895 22.9878 18.8476 21.1944 18.99V18.9915ZM1.19186 27.2792C1.19186 27.9511 1.14489 28.6051 1.20506 29.2488C1.2711 29.9681 1.68642 30.548 2.38056 30.6934C3.12608 30.8491 3.91121 30.8076 4.6802 30.8521V27.2792H1.19186ZM15.2714 27.2762V30.8135C15.8673 30.8135 16.4396 30.8209 17.009 30.812C17.8822 30.7972 18.6292 30.1876 18.726 29.3066C18.7994 28.6422 18.7407 27.9644 18.7407 27.2777H15.2714V27.2762ZM29.3349 27.2762V30.8135C29.9307 30.8135 30.5016 30.8209 31.0725 30.812C31.9589 30.7972 32.7132 30.1594 32.7983 29.271C32.8614 28.617 32.81 27.9525 32.81 27.2777H29.3334L29.3349 27.2762Z" fill="#13AB7B"/>
</svg>
