<svg width="65" height="56" viewBox="0 0 65 56" fill="none" xmlns="http://www.w3.org/2000/svg">
<path d="M26.0149 28.8756V34.2184C27.6866 34.2184 29.323 34.2133 30.9594 34.2209C31.3994 34.2209 31.8521 34.2108 32.277 34.3051C34.2169 34.7333 35.4562 36.3137 35.4815 38.3937C35.5042 40.1526 35.4865 41.914 35.4865 43.6728C35.4865 43.9022 35.4865 44.1291 35.4865 44.4452H36.2149C40.9925 44.4452 45.77 44.384 50.5476 44.4681C53.1627 44.514 54.928 42.4671 54.8774 40.0939C54.7813 35.6866 54.8496 31.2742 54.8496 26.8644V26.1226C54.0049 26.1226 53.1956 26.1226 52.3862 26.1226C51.2481 26.1226 51.0129 25.8881 51.0104 24.7538C51.0104 20.8104 51.0053 16.867 51.0104 12.9211C51.0129 10.9456 51.8652 9.43657 53.6028 8.52656C55.2644 7.65479 56.9437 7.7593 58.5042 8.81205C59.8497 9.71696 60.5604 11.0374 60.6236 12.6611C60.6768 13.9943 60.6439 15.3325 60.6363 16.6682C60.6312 17.3488 60.2443 17.7923 59.6904 17.8C59.1137 17.8102 58.742 17.3616 58.7394 16.6274C58.7344 15.3555 58.7597 14.0835 58.7293 12.8115C58.6939 11.3101 57.5912 10.0662 56.2154 9.92089C54.6852 9.75775 53.3422 10.6168 53.016 12.0723C52.8642 12.7401 52.9199 13.4564 52.8769 14.2466C53.451 14.2466 53.9467 14.239 54.445 14.2466C55.1304 14.2594 55.5375 14.629 55.5274 15.2127C55.5173 15.7582 55.1025 16.1329 54.4702 16.1559C54.2173 16.1661 53.9644 16.1559 53.7115 16.1559C53.4813 16.1559 53.2512 16.1559 52.9679 16.1559V17.9402C53.4535 17.9402 53.9518 17.9325 54.45 17.9402C55.1202 17.9529 55.5401 18.3429 55.5249 18.919C55.5122 19.4747 55.1101 19.8341 54.4677 19.8494C53.9872 19.8596 53.5041 19.8494 52.9679 19.8494V24.1471H58.7394C58.7394 23.2065 58.7344 22.2812 58.7394 21.3559C58.7445 20.5963 59.0809 20.2012 59.698 20.2114C60.2772 20.2216 60.6312 20.6269 60.6363 21.3279C60.6464 22.5565 60.6489 23.7877 60.6363 25.0163C60.6287 25.7556 60.2847 26.0971 59.5462 26.1099C58.6459 26.1226 57.7455 26.1124 56.7515 26.1124C56.7515 26.4209 56.7515 26.6656 56.7515 26.9128C56.7515 31.3864 56.7642 35.86 56.7465 40.3336C56.7338 43.3261 54.8673 45.656 52.022 46.2448C51.5137 46.3493 50.975 46.3493 50.4514 46.3519C45.7371 46.3595 41.0228 46.357 36.3085 46.357H35.489C35.489 46.6552 35.489 46.8795 35.489 47.1064C35.489 49.5866 35.489 52.0668 35.489 54.5496C35.489 55.7145 35.2235 55.9898 34.0955 55.9898C25.2131 55.9898 16.3333 55.9898 7.45099 55.9898C6.39634 55.9898 6.10549 55.6967 6.10549 54.6337C6.10549 52.4084 6.10549 50.1805 6.10549 47.9552C6.10549 47.8278 6.0979 47.7003 6.11308 47.5729C6.1763 46.9968 6.59108 46.5966 7.09944 46.6144C7.63056 46.6323 7.99729 47.0172 8.00234 47.6315C8.01499 49.477 8.0074 51.32 8.00993 53.1655C8.00993 53.4382 8.00993 53.711 8.00993 54.0296H33.5871C33.5871 53.7823 33.5871 53.5555 33.5871 53.3286C33.5871 48.4523 33.5593 43.5734 33.6023 38.6971C33.6175 37.0886 32.6235 36.0894 31.058 36.1021C24.2192 36.1557 17.3779 36.1557 10.5391 36.1021C8.85719 36.0894 7.929 37.2288 7.99729 38.6971C8.06304 40.1347 8.01499 41.58 8.00993 43.0228C8.0074 43.7952 7.68114 44.1852 7.07162 44.1852C6.47474 44.1852 6.10549 43.7646 6.11308 43.0203C6.13331 41.1773 6.05491 39.3241 6.23953 37.4965C6.42922 35.6204 8.13133 34.2464 10.0105 34.2209C11.8391 34.1955 13.6651 34.2158 15.5493 34.2158V28.8679H14.7981C10.969 28.8679 7.13738 28.8221 3.30826 28.8858C1.17872 28.9291 -0.0150319 27.4558 0.000142927 25.6103C0.0608423 18.1059 0.0254343 10.5989 0.0254343 3.09199C0.0254343 1.14452 1.14331 0 3.06799 0C14.874 0 26.68 0 38.4861 0C40.4462 0 41.5691 1.14197 41.5691 3.12258C41.5691 10.6499 41.5691 18.1772 41.5691 25.7046C41.5691 27.7107 40.4285 28.8705 38.4456 28.873C34.5533 28.8781 30.6584 28.873 26.766 28.873C26.5359 28.873 26.3057 28.873 26.0149 28.873V28.8756ZM39.6722 24.2057C39.3409 24.2057 39.0931 24.2057 38.8427 24.2057C33.6023 24.2057 28.3619 24.2057 23.1215 24.2057C22.4159 24.2057 22.0113 23.8616 22.0011 23.2855C21.9885 22.7018 22.3856 22.3322 23.0735 22.294C23.2404 22.2838 23.4099 22.2914 23.5793 22.2914C28.6932 22.2914 33.8072 22.2914 38.9211 22.2914C39.1614 22.2914 39.4016 22.2914 39.6722 22.2914V21.5496C39.6722 15.4651 39.6722 9.37794 39.6722 3.29337C39.6722 2.16159 39.4269 1.91688 38.3065 1.91688C26.6269 1.91688 14.9448 1.91688 3.26526 1.91688C2.17015 1.91688 1.92482 2.15904 1.92482 3.24748C1.92482 9.355 1.92482 15.46 1.92482 21.5675V22.2914H2.74932C7.88347 22.2914 13.0202 22.2914 18.1543 22.294C18.4249 22.294 18.7057 22.3067 18.9611 22.3883C19.4214 22.531 19.6414 22.8981 19.5833 23.3697C19.5276 23.831 19.252 24.142 18.7638 24.1955C18.5564 24.2185 18.344 24.2083 18.1341 24.2083C12.9999 24.2083 7.86324 24.2083 2.72909 24.2083H1.92482C1.92482 24.6748 1.92482 25.0724 1.92482 25.4701C1.92482 26.7293 2.14991 26.9613 3.37908 26.9613C14.9954 26.9613 26.6143 26.9613 38.2306 26.9613C38.4001 26.9613 38.5695 26.9715 38.7365 26.9536C39.3258 26.8899 39.6571 26.5662 39.6697 25.9595C39.6824 25.4114 39.6722 24.8608 39.6722 24.2108V24.2057ZM24.0194 34.1827V28.9164H17.5676V34.1827H24.0194Z" fill="#13AB7B"/>
<path d="M20.7876 43.5276C18.1168 43.5276 15.4461 43.5301 12.7728 43.5276C11.0732 43.525 9.81114 42.3448 9.78838 40.7517C9.76562 39.1509 11.058 37.9222 12.7854 37.9222C18.1902 37.9197 23.5975 37.9171 29.0023 37.9248C30.4717 37.9273 31.6174 38.9954 31.7616 40.4432C31.9057 41.8834 30.975 43.1733 29.5536 43.4766C29.2906 43.5327 29.0099 43.525 28.7367 43.525C26.0862 43.5276 23.4356 43.525 20.7851 43.525L20.7876 43.5276ZM20.8078 41.6158C23.4356 41.6158 26.0634 41.6158 28.6937 41.6158C29.4879 41.6158 29.8773 41.3099 29.8672 40.7109C29.8571 40.1373 29.4727 39.8366 28.7241 39.8366C23.4255 39.8366 18.127 39.8366 12.8284 39.8366C12.6817 39.8366 12.53 39.8289 12.3883 39.8621C11.837 39.9972 11.488 40.6472 11.8193 41.0932C12.0191 41.3634 12.4592 41.5903 12.7955 41.5954C15.4663 41.6362 18.1371 41.6183 20.8053 41.6183L20.8078 41.6158Z" fill="#13AB7B"/>
<path d="M64.8428 4.83043C64.5772 5.15925 64.4204 5.52632 64.1624 5.62318C63.8766 5.73279 63.4467 5.692 63.1761 5.54161C62.7638 5.30965 62.4477 4.9069 62.0658 4.61121C58.0545 1.51157 52.4652 1.79706 48.7751 5.28671C48.2035 5.8271 47.6421 5.90612 47.2273 5.50082C46.8201 5.10572 46.8505 4.51434 47.3259 4.04532C49.2152 2.17687 51.4813 1.02725 54.0964 0.675481C57.923 0.158024 61.2817 1.25921 64.1321 3.88473C64.3951 4.12689 64.5696 4.46336 64.8428 4.83297V4.83043Z" fill="#13AB7B"/>
<path d="M26.9409 45.3145C28.9263 45.317 30.5981 47.0198 30.5728 49.0131C30.5475 51.0065 28.9111 52.6328 26.9333 52.6328C24.9606 52.6328 23.3268 50.9988 23.3015 49.0029C23.2787 47.0096 24.953 45.3094 26.9409 45.3145ZM26.9662 50.698C27.9222 50.6802 28.6987 49.8747 28.6658 48.9316C28.6329 48.0088 27.8514 47.239 26.9435 47.2339C26.0026 47.2288 25.2211 48.0266 25.2262 48.9851C25.2338 49.9563 26.0026 50.7133 26.9662 50.698Z" fill="#13AB7B"/>
<path d="M62.0682 7.24688C62.0505 8.18238 61.2918 8.63101 60.6721 8.2512C60.3712 8.06767 60.1259 7.79237 59.8426 7.5706C57.3514 5.62823 53.8738 5.72764 51.4838 7.80767C51.4054 7.87649 51.3295 7.95041 51.2511 8.02179C50.7149 8.49336 50.204 8.51885 49.8044 8.09826C49.4048 7.67766 49.4453 7.13727 49.941 6.64785C51.0488 5.55686 52.3614 4.81763 53.8688 4.48881C56.7495 3.85919 59.3191 4.52959 61.527 6.5102C61.79 6.74471 61.957 7.09138 62.0708 7.24688H62.0682Z" fill="#13AB7B"/>
<path d="M20.8787 49.0207C20.8787 49.3164 20.8888 49.6147 20.8787 49.9103C20.8559 50.4686 20.5043 50.8611 20.0112 50.8994C19.518 50.9376 19.0476 50.5909 19.0096 50.0505C18.959 49.3343 18.959 48.6103 19.0096 47.8941C19.0501 47.3537 19.5079 47.0248 20.0289 47.0809C20.5676 47.1395 20.8534 47.4633 20.8761 48.0062C20.8913 48.3452 20.8787 48.6843 20.8787 49.0233V49.0207Z" fill="#13AB7B"/>
<path d="M13.5341 48.9773C13.5341 49.3163 13.5568 49.6579 13.529 49.9944C13.486 50.5322 13.0738 50.9069 12.5755 50.9018C12.0773 50.8967 11.6701 50.5144 11.6499 49.9714C11.6246 49.3163 11.6271 48.6587 11.6499 48.0036C11.6676 47.4479 12.0495 47.0859 12.5679 47.0782C13.0864 47.0706 13.486 47.4224 13.5315 47.9653C13.5594 48.3018 13.5366 48.6434 13.5366 48.9824L13.5341 48.9773Z" fill="#13AB7B"/>
<path d="M17.2012 49.0282C17.2012 49.3469 17.2215 49.6655 17.1987 49.9816C17.1608 50.522 16.8497 50.833 16.3236 50.8941C15.8304 50.9502 15.3575 50.573 15.3271 50.0453C15.2867 49.329 15.269 48.6025 15.3347 47.8888C15.3828 47.3739 15.7419 47.0578 16.2933 47.0808C16.832 47.1037 17.1456 47.4147 17.1962 47.95C17.2291 48.3069 17.2012 48.6688 17.2038 49.0282H17.2012Z" fill="#13AB7B"/>
<path d="M5.14218 11.1724C5.14218 10.0482 5.0916 8.9241 5.1523 7.80252C5.26864 5.65877 6.64955 4.06816 8.75379 3.89993C10.6329 3.74953 12.545 3.75208 14.4267 3.89993C16.5006 4.06307 17.9472 5.63073 18.0231 7.73879C18.1066 10.0227 18.1243 12.322 17.9548 14.5983C17.7247 17.703 15.1146 20.1348 12.0316 20.3515C8.94095 20.5681 5.98944 18.4601 5.36222 15.4063C5.07895 14.0324 5.13712 12.5896 5.04102 11.1775C5.07389 11.1775 5.1093 11.1724 5.14218 11.1724ZM6.99351 11.5496C7.04915 12.5692 6.96316 13.7979 7.21355 14.9526C7.77502 17.522 10.3927 19.0081 12.8409 18.2562C15.3928 17.4711 16.5865 15.1208 16.0377 12.1155C13.9765 12.3933 12.072 12.0212 10.4104 10.6753C10.3269 10.6065 10.1398 10.6192 10.0184 10.6549C9.06235 10.9302 8.11139 11.2182 6.99351 11.5522V11.5496ZM16.1364 10.1451C16.1364 9.30645 16.192 8.52135 16.1237 7.74644C16.02 6.56623 15.1576 5.78367 13.9765 5.76583C12.3806 5.74034 10.7847 5.73779 9.18881 5.76583C7.97988 5.78877 7.14273 6.62231 7.05674 7.82801C7.03145 8.18487 7.06433 8.54684 7.03904 8.90625C7.01122 9.3243 7.25148 9.46704 7.58027 9.38038C8.20244 9.21979 8.83473 9.05155 9.41137 8.7788C10.3724 8.32252 10.595 8.28684 11.3841 8.98782C12.7549 10.2012 14.328 10.5122 16.1364 10.1425V10.1451Z" fill="#13AB7B"/>
<path d="M28.7544 4.81009C30.7094 4.81009 32.667 4.81009 34.622 4.81009C34.8319 4.81009 35.0444 4.80499 35.2518 4.82793C35.7374 4.88401 36.008 5.18225 36.051 5.66147C36.0965 6.13814 35.8891 6.48991 35.4288 6.64285C35.2341 6.70658 35.0166 6.72442 34.8092 6.72442C30.7297 6.72952 26.6476 6.72697 22.5681 6.72442C22.4214 6.72442 22.2697 6.72697 22.1306 6.69129C21.6197 6.56383 21.3213 6.24265 21.3592 5.69206C21.3971 5.14402 21.7158 4.84578 22.2545 4.81774C22.6946 4.7948 23.1372 4.80499 23.5798 4.80499C25.3046 4.80499 27.0295 4.80499 28.7544 4.80499V4.81009Z" fill="#13AB7B"/>
<path d="M28.6758 15.692C26.698 15.692 24.7227 15.692 22.7449 15.692C22.535 15.692 22.32 15.7021 22.1152 15.6665C21.6701 15.59 21.3312 15.2968 21.3893 14.861C21.4348 14.5194 21.6675 14.1396 21.9331 13.9076C22.1152 13.747 22.492 13.7802 22.7804 13.7802C26.7334 13.7725 30.6864 13.7751 34.642 13.7751C34.8317 13.7751 35.0239 13.7649 35.2085 13.7955C35.7548 13.8821 36.0887 14.2823 36.0634 14.7972C36.0381 15.3274 35.6967 15.6767 35.1124 15.6843C33.7037 15.7047 32.295 15.6945 30.8862 15.6945C30.1503 15.6945 29.4143 15.6945 28.6783 15.6945L28.6758 15.692Z" fill="#13AB7B"/>
<path d="M26.5538 19.4287C25.2513 19.4287 23.9513 19.444 22.6488 19.4185C22.3276 19.4134 21.9558 19.3522 21.7004 19.1789C21.1187 18.7863 21.2704 17.8355 21.9305 17.5857C22.1227 17.5144 22.3403 17.4914 22.5476 17.4914C25.2134 17.4863 27.8791 17.4863 30.5448 17.4863C31.0835 17.4863 31.564 17.6061 31.7183 18.2179C31.8878 18.8934 31.4477 19.4083 30.6459 19.4211C29.2827 19.444 27.917 19.4262 26.5513 19.4262L26.5538 19.4287Z" fill="#13AB7B"/>
<path d="M26.5285 10.4384C25.1425 10.4384 23.7565 10.4435 22.3731 10.4358C21.885 10.4333 21.5107 10.2064 21.3842 9.71444C21.2729 9.28875 21.3969 8.90384 21.7939 8.67698C21.9659 8.58011 22.1885 8.53423 22.3883 8.53168C25.1602 8.52149 27.9296 8.52149 30.7016 8.52913C31.3617 8.52913 31.736 8.87325 31.7461 9.44679C31.7562 10.0433 31.3693 10.4282 30.6864 10.4358C29.3004 10.4511 27.917 10.4409 26.531 10.4409L26.5285 10.4384Z" fill="#13AB7B"/>
</svg>
