<svg width="22" height="16" viewBox="0 0 22 16" fill="none" xmlns="http://www.w3.org/2000/svg">
<path d="M11.4083 16C9.22348 15.9276 7.03773 15.8685 4.8529 15.7752C4.13687 15.7447 3.42177 15.6494 2.71218 15.5418C1.47684 15.355 0.574225 14.4567 0.360062 13.1296C0.19829 12.1255 0.0797194 11.1062 0.0411148 10.0906C-0.0121962 8.67591 -0.016792 7.25454 0.042034 5.84079C0.0861535 4.77761 0.207482 3.70968 0.397747 2.6646C0.643162 1.32516 1.61563 0.500149 2.9291 0.333433C5.14243 0.0533492 7.36679 0 9.59023 0C11.8679 0 14.1465 0.0466806 16.4232 0.116225C17.3451 0.143852 18.268 0.251503 19.1816 0.384876C20.5456 0.583983 21.3959 1.48235 21.6422 2.90848C21.974 4.83477 22.0328 6.78107 21.9832 8.72926C21.9547 9.8515 21.8656 10.9737 21.7736 12.0931C21.7341 12.5714 21.6496 13.0515 21.5282 13.5145C21.2231 14.6806 20.2736 15.4436 19.0327 15.5989C16.7514 15.8847 14.4581 15.9047 12.1648 15.9409C11.9129 15.9447 11.6602 15.9409 11.4083 15.9409C11.4083 15.96 11.4074 15.979 11.4065 15.9981L11.4083 16ZM8.79975 11.3805C10.7199 10.2345 12.6051 9.11033 14.5215 7.96618C12.5931 6.81631 10.7061 5.69026 8.79975 4.55374V11.3796V11.3805Z" fill="#13AB7B"/>
</svg>
