<svg width="13" height="20" viewBox="0 0 13 20" fill="none" xmlns="http://www.w3.org/2000/svg">
<path d="M11.6886 12.1788C12.1519 11.7155 12.2181 11.0536 11.8209 10.3917C11.49 9.86216 10.8943 9.59741 10.2324 9.72978C9.96765 9.79597 9.70289 9.92836 9.43813 10.1269C7.38627 11.5169 4.60634 11.4507 2.55448 10.0607C2.4221 9.99454 2.28972 9.92835 2.15734 9.86216C1.42926 9.53122 0.701193 9.6636 0.304059 10.3255C-0.159264 10.9874 -0.093083 11.7155 0.502618 12.3112C0.634996 12.4435 0.767374 12.5097 0.833563 12.6421L0.899756 12.7083C1.8264 13.4364 2.95162 13.8997 4.40777 14.0983L3.54732 14.9587C2.81924 15.6868 2.02497 16.4811 1.29689 17.2091C1.09833 17.4077 0.833563 17.7387 0.833563 18.202C0.833563 18.7977 1.16451 19.3934 1.76021 19.6581C1.95878 19.7905 2.15734 19.7905 2.35591 19.7905C2.68686 19.7905 3.08399 19.6581 3.34875 19.3272C4.34158 18.3344 5.13585 17.5401 5.93012 16.7458C5.99631 16.6796 5.9963 16.6796 5.9963 16.6796C5.9963 16.6796 6.0625 16.6796 6.0625 16.7458C6.59201 17.3415 7.18771 17.871 7.71722 18.4667C7.98198 18.7315 8.24673 18.9962 8.51149 19.261C8.84243 19.5919 9.10719 19.7243 9.50432 19.7243C10.1 19.7905 10.7619 19.3934 11.0267 18.7977C11.2914 18.2682 11.159 17.6063 10.6957 17.2091C10.0338 16.5473 9.37194 15.8192 8.64386 15.1573L7.51865 14.0321C8.11436 13.9659 8.77625 13.8335 9.37195 13.5687C10.3648 13.2378 11.0929 12.7745 11.6886 12.1788Z" fill="#13AB7B"/>
<path d="M5.9963 10.3255C8.84243 10.3255 11.159 8.07505 11.159 5.22892C11.159 3.83896 10.6295 2.51518 9.6367 1.52235C8.64386 0.529514 7.38628 0 6.0625 0C3.21637 0 0.965944 2.31661 0.899755 5.09655C0.899755 6.48652 1.42927 7.74411 2.4221 8.73694C3.34875 9.79597 4.60634 10.3255 5.9963 10.3255ZM4.54015 3.70659C4.93728 3.30945 5.46679 3.11088 5.9963 3.11088C7.18771 3.11088 8.04817 4.03753 8.04817 5.16274C8.04817 6.35414 7.12152 7.21459 5.9963 7.21459C4.8049 7.21459 3.94445 6.28795 3.94445 5.16274C3.94445 4.63323 4.14301 4.10372 4.54015 3.70659Z" fill="#13AB7B"/>
<path d="M11.6886 12.1788C12.1519 11.7155 12.2181 11.0536 11.8209 10.3917C11.49 9.86216 10.8943 9.59741 10.2324 9.72978C9.96765 9.79597 9.70289 9.92836 9.43813 10.1269C7.38627 11.5169 4.60634 11.4507 2.55448 10.0607C2.4221 9.99454 2.28972 9.92835 2.15734 9.86216C1.42926 9.53122 0.701193 9.6636 0.304059 10.3255C-0.159264 10.9874 -0.093083 11.7155 0.502618 12.3112C0.634996 12.4435 0.767374 12.5097 0.833563 12.6421L0.899756 12.7083C1.8264 13.4364 2.95162 13.8997 4.40777 14.0983L3.54732 14.9587C2.81924 15.6868 2.02497 16.4811 1.29689 17.2091C1.09833 17.4077 0.833563 17.7387 0.833563 18.202C0.833563 18.7977 1.16451 19.3934 1.76021 19.6581C1.95878 19.7905 2.15734 19.7905 2.35591 19.7905C2.68686 19.7905 3.08399 19.6581 3.34875 19.3272C4.34158 18.3344 5.13585 17.5401 5.93012 16.7458C5.99631 16.6796 5.9963 16.6796 5.9963 16.6796C5.9963 16.6796 6.0625 16.6796 6.0625 16.7458C6.59201 17.3415 7.18771 17.871 7.71722 18.4667C7.98198 18.7315 8.24673 18.9962 8.51149 19.261C8.84243 19.5919 9.10719 19.7243 9.50432 19.7243C10.1 19.7905 10.7619 19.3934 11.0267 18.7977C11.2914 18.2682 11.159 17.6063 10.6957 17.2091C10.0338 16.5473 9.37194 15.8192 8.64386 15.1573L7.51865 14.0321C8.11436 13.9659 8.77625 13.8335 9.37195 13.5687C10.3648 13.2378 11.0929 12.7745 11.6886 12.1788Z" fill="#13AB7B"/>
</svg>
