<svg width="272" height="43" viewBox="0 0 272 43" fill="none" xmlns="http://www.w3.org/2000/svg">
<path d="M70.1463 24.5773C68.4348 26.8019 66.9076 27.7935 64.1165 27.7935C60.2195 27.7935 56.9545 24.8185 56.9545 20.7714C56.9545 16.8315 60.0878 13.8297 64.1692 13.8297C66.5916 13.8297 68.4875 15.0626 69.8303 16.9923L74.0696 12.5432C71.5945 8.92492 67.9082 7.63843 63.6952 7.63843C56.2172 7.63843 50.319 13.2937 50.319 20.9858C50.319 28.7048 56.2698 34.1724 63.6952 34.1724C68.1715 34.1724 71.7525 32.4035 74.4646 28.8388L70.1463 24.5773Z" fill="#13AB7B"/>
<path d="M77.6772 33.5835H83.944L84.1546 18.8156L88.6836 26.615H92.1593L96.6882 18.8156L96.8988 33.5835H103.166L102.771 8.38965H96.6355L90.3688 18.5744L84.1283 8.38965H78.0722L77.6772 33.5835Z" fill="#13AB7B"/>
<path d="M106.826 24.7655H112.803H118.807V19.5659H112.803H106.826V24.7655Z" fill="#13AB7B"/>
<path d="M129.366 23.2101H130.893C132.683 23.2101 134.158 25.0863 135 26.8552L138.344 33.5557H145.664L141.004 24.1214C139.872 21.9772 138.634 20.6371 136.475 19.9403C138.213 19.1898 139.345 18.0909 140.504 15.6788L144.269 8.38862H137.186L134.184 14.3655C133.315 16.2952 132.288 17.1261 130.445 17.1261H129.366V8.36182H122.941V33.5557H129.366V23.2101Z" fill="#13AB7B"/>
<path d="M152.166 15.1436C152.166 25.3283 151.113 28.0889 147.479 28.0889V33.5565C147.479 33.5565 148.216 33.5565 148.611 33.5565C153.878 33.5565 157.511 29.6702 157.511 20.504H160.381V33.5833H166.517V15.1436H152.166Z" fill="#13AB7B"/>
<path d="M188.24 33.5833V15.1436H182.948L176.444 24.5511V15.1436H170.599V33.5833H175.549L182.421 24.1758V33.5833H188.24Z" fill="#13AB7B"/>
<path d="M203.829 15.1436V21.6296H198.484V15.1436H192.349V33.5833H198.484V26.8024H203.829V33.5565H209.964V15.1436H203.829Z" fill="#13AB7B"/>
<path d="M231.687 33.5833V15.1436H226.394L219.891 24.5511V15.1436H214.045V33.5833H218.969L225.841 24.1222V33.5833H231.687Z" fill="#13AB7B"/>
<path d="M241.824 26.6148H242.903C244.22 26.6148 245.01 27.9013 245.537 28.9197L247.748 33.5833H254.278L251.382 27.4456C250.25 25.3283 249.249 24.283 247.538 23.6933C248.96 23.2109 249.934 22.4604 250.908 20.5307L253.515 15.1167H247.274L245.247 19.4586C244.641 20.7719 244.115 21.2276 242.851 21.2276H241.798V15.1435H235.768V33.5833H241.798V26.6148H241.824Z" fill="#13AB7B"/>
<path d="M272 33.5834V22.7018C272 17.663 268.761 15.0364 264.048 15.0364C259.993 15.0364 256.886 16.3229 255.596 17.8774L258.413 21.0132C259.44 20.2628 260.993 19.6999 263.153 19.6999C264.39 19.6999 265.996 20.1288 265.996 21.9781V22.3265C265.154 22.2193 264.68 22.1657 263.574 22.1657C259.177 22.1657 255.411 24.3903 255.411 28.7858C255.411 33.1009 258.492 34.2266 260.756 34.2266C263.074 34.2266 264.469 33.6638 266.023 31.9753V33.637H272V33.5834ZM266.023 26.9097C265.838 29.3487 264.285 29.9919 262.995 29.9919C261.652 29.9919 260.967 29.1342 260.967 27.7941C260.967 26.5344 262.31 25.5696 264.338 25.5696C265.127 25.5696 265.68 25.5964 265.996 25.7304V26.9097H266.023Z" fill="#13AB7B"/>
<path d="M1.87245e-05 13.267C1.87245e-05 7.02213 1.87079e-05 3.88629 1.89585 1.92974C3.81802 0 6.89875 0 13.0339 0H28.3322C34.4674 0 37.5481 0 39.4703 1.92974C41.3661 3.88629 41.3661 6.99532 41.3661 13.267V28.839C41.3661 35.0838 41.3661 38.2197 39.4703 40.1762C37.5481 42.106 34.4937 42.106 28.3322 42.106H13.0339C6.89875 42.106 3.81802 42.106 1.89585 40.1762C-0.0263124 38.2465 1.87245e-05 35.1106 1.87245e-05 28.839V13.267Z" fill="#13AB7B"/>
<path fill-rule="evenodd" clip-rule="evenodd" d="M20.9864 33.6099C12.6131 33.6099 5.26672 28.0082 5.42471 22.0314C5.24039 17.6895 7.63652 13.0795 13.0344 10.6405C15.0356 9.72928 18.4849 8.95202 21.829 8.92522C22.5662 8.89841 23.0402 8.81801 23.6985 8.684C24.1198 8.60359 24.5937 8.49638 25.2783 8.41598C26.3842 8.25517 27.8851 8.09435 29.2017 8.63039C30.7289 9.40765 32.2297 10.5869 32.2297 11.1498C32.2297 11.7126 31.2292 12.7311 30.5709 12.8115C29.4386 12.9455 28.0168 12.7311 26.2263 12.4363C24.857 12.2219 23.2772 11.9538 21.4867 11.8198C13.9296 11.7126 8.40012 16.8854 8.55811 21.9242C8.71609 28.3031 16.5891 31.0905 21.4603 31.0905C34.9945 31.1709 34.5732 18.8956 31.3871 18.3059C30.3602 18.1183 29.5176 19.9408 28.6224 21.951C27.5691 24.2828 26.4106 26.8826 24.6464 26.8558C23.0139 26.829 21.7236 24.0683 20.6441 21.7366C19.8805 20.1285 19.2485 18.7347 18.6692 18.6543C17.616 18.5471 16.8261 21.0397 16.1151 23.2375C15.6412 24.7116 15.2199 26.0517 14.7986 26.3465C13.8243 27.3382 11.2702 25.194 11.6125 24.3632C11.9548 23.5591 12.2971 23.8539 12.6658 24.2024C12.9554 24.4704 13.2977 24.792 13.6663 24.4436C13.798 24.3096 14.0086 23.7199 14.2719 22.8891C15.0619 20.5573 16.4311 16.3762 18.8009 16.1886C20.4861 16.0545 21.829 19.1636 22.9085 21.6294C23.5931 23.2375 24.1724 24.5776 24.6727 24.5776C25.2257 24.5776 25.7786 23.3447 26.4369 21.817C27.5691 19.2976 29.0173 16.0277 31.3871 16.4298C37.4696 17.5019 37.9699 33.6367 20.9864 33.6099ZM28.8067 9.91689C28.8067 10.1849 28.3854 10.2117 27.5165 10.1849C26.8582 10.1581 26.4369 9.97049 26.5422 9.62207C26.6476 9.27364 27.2268 9.24684 27.8588 9.38085C28.1484 9.43445 28.8067 9.62207 28.8067 9.91689Z" fill="white"/>
</svg>
